<svg width="40" height="40" viewBox="0 0 40 40" fill="none" xmlns="http://www.w3.org/2000/svg">
<g clip-path="url(#clip0_464_29185)">
<rect y="0.000488281" width="40" height="40" rx="20" fill="#1977F3"/>
<g clip-path="url(#clip1_464_29185)">
<path d="M40 20.0005C40 8.95563 31.0449 0.000488281 20 0.000488281C8.95514 0.000488281 0 8.95563 0 20.0005C0 29.9822 7.31261 38.2567 16.8753 39.7586V25.7831H11.7958V20.0005H16.8753V15.5932C16.8753 10.5813 19.8622 7.81092 24.4298 7.81092C26.6179 7.81092 28.9073 8.20187 28.9073 8.20187V13.1238H26.3845C23.901 13.1238 23.1247 14.6651 23.1247 16.2486V20.0005H28.6711L27.7851 25.7831H23.1247V39.7586C32.6874 38.2595 40 29.985 40 20.0005Z" fill="#1977F3"/>
<path d="M27.7852 25.7832L28.6712 20.0006H23.1248V16.2487C23.1248 14.668 23.8983 13.1239 26.3846 13.1239H28.9074V8.20198C28.9074 8.20198 26.618 7.81104 24.4298 7.81104C19.8623 7.81104 16.8754 10.5786 16.8754 15.5933V20.0006H11.7959V25.7832H16.8754V39.7587C17.8935 39.919 18.9369 40.0006 20.0001 40.0006C21.0632 40.0006 22.1067 39.9162 23.1248 39.7587V25.7832H27.7852Z" fill="#FEFEFE"/>
</g>
</g>
<defs>
<clipPath id="clip0_464_29185">
<rect y="0.000488281" width="40" height="40" rx="20" fill="white"/>
</clipPath>
<clipPath id="clip1_464_29185">
<rect width="40" height="40" fill="white" transform="translate(0 0.000488281)"/>
</clipPath>
</defs>
</svg>
