<?xml version="1.0" encoding="UTF-8"?>
<svg version="1.1" xmlns="http://www.w3.org/2000/svg" width="2000" height="2000">
<path d="M0 0 C6.41523803 0.00934601 12.83043549 -0.00472591 19.24566522 -0.01563917 C30.46079345 -0.03223738 41.67585396 -0.03289394 52.89098916 -0.02404158 C64.90888464 -0.0146212 76.92673385 -0.01400328 88.94462952 -0.02382605 C89.70730565 -0.02444322 90.46998178 -0.02506039 91.2557693 -0.02569627 C94.36269116 -0.02823808 97.46961296 -0.03083994 100.57653471 -0.03351828 C132.02012196 -0.06059749 163.4636737 -0.06213224 194.90726908 -0.05356027 C199.24330481 -0.05238713 203.57934053 -0.051254 207.91537628 -0.05016201 C208.77676302 -0.04994487 209.63814976 -0.04972773 210.52563913 -0.04950401 C229.66111454 -0.04486065 248.79658602 -0.0483036 267.932061 -0.05342852 C270.55516528 -0.05413086 273.17826957 -0.05481585 275.80137386 -0.05549566 C282.83401478 -0.05732127 289.86665569 -0.05916685 296.8992966 -0.06104843 C345.95767335 -0.07408429 395.01604624 -0.07919676 444.07442364 -0.06751482 C444.99806795 -0.06729627 445.92171225 -0.06707771 446.87334578 -0.06685254 C457.17166916 -0.0644076 467.46999251 -0.06183768 477.76831585 -0.05921715 C478.698005 -0.05898061 479.62769415 -0.05874407 480.58555571 -0.05850036 C484.34526252 -0.05754298 488.10496933 -0.05658543 491.86467614 -0.05562021 C551.32344597 -0.04037534 610.78216762 -0.04836452 670.24093232 -0.07685225 C685.22472582 -0.08401756 700.20851934 -0.09112047 715.19231305 -0.09783404 C716.1150753 -0.09824826 717.03783755 -0.09866248 717.98856229 -0.09908925 C746.45332574 -0.111784 774.91808516 -0.11828101 803.38285145 -0.11824076 C804.72440363 -0.11823956 804.72440363 -0.11823956 806.09305786 -0.11823833 C825.73147754 -0.11815412 845.36989686 -0.11651361 865.0083163 -0.11345994 C872.03605419 -0.11237616 879.0637921 -0.11138484 886.09153002 -0.11042908 C887.8396583 -0.110189 889.58778657 -0.1099426 891.33591485 -0.10968986 C919.12123896 -0.10570611 946.90653563 -0.11564424 974.69185427 -0.13239411 C1003.47331737 -0.14960719 1032.25472648 -0.14802946 1061.03618657 -0.1254881 C1064.13573088 -0.12313186 1067.23527523 -0.12085493 1070.33481965 -0.11864035 C1071.09543504 -0.11808964 1071.85605044 -0.11753894 1072.63971479 -0.11697154 C1084.61582741 -0.10874624 1096.5918665 -0.11711437 1108.56796945 -0.13261856 C1120.38381076 -0.14755633 1132.19952723 -0.1438362 1144.01535923 -0.12238416 C1150.31898801 -0.11144013 1156.62234969 -0.10797664 1162.92596518 -0.12705946 C1208.87220551 -0.25645862 1251.47718045 4.67637356 1295.46822724 18.52007158 C1296.26148407 18.76789384 1297.05474091 19.01571611 1297.87203583 19.27104814 C1306.5228131 21.99232577 1314.97354725 25.15627219 1323.3442038 28.63823564 C1324.82850226 29.25447541 1326.3150231 29.86537729 1327.80318818 30.47222002 C1379.68005495 51.66194061 1425.2688514 84.38793768 1464.84322724 123.77007158 C1465.49726532 124.41943681 1466.15130341 125.06880205 1466.82516083 125.73784502 C1471.24092257 130.1682322 1475.40296066 134.76734134 1479.46822724 139.52007158 C1479.95210907 140.08226396 1480.43599091 140.64445634 1480.93453583 141.22368486 C1486.62255275 147.85130329 1492.24768363 154.51490207 1497.46822724 161.52007158 C1497.91891571 162.12383623 1498.36960419 162.72760088 1498.83394989 163.34966142 C1507.29026988 174.72828681 1515.09451262 186.41397295 1522.46822724 198.52007158 C1523.14329316 199.62463701 1523.14329316 199.62463701 1523.83199677 200.75151689 C1529.91731885 210.75570582 1535.46496496 220.9333531 1540.46822724 231.52007158 C1540.81707978 232.25499834 1541.16593232 232.98992509 1541.52535614 233.74712236 C1558.76945034 270.34920285 1571.86805277 309.68125389 1576.76222208 349.96304597 C1577.19658055 353.47847712 1577.68790997 356.9758438 1578.23902169 360.47470833 C1581.51636888 382.74874713 1580.8957203 405.23439219 1580.85983126 427.68934145 C1580.85307151 434.01102369 1580.86381246 440.3326817 1580.8722271 446.65435864 C1580.8845578 457.71453316 1580.88592496 468.77466429 1580.87967667 479.83484323 C1580.87302728 491.69077175 1580.872951 503.54667367 1580.88072381 515.40260179 C1580.8812118 516.15412683 1580.8816998 516.90565187 1580.88220259 517.67995039 C1580.88421099 520.7413018 1580.88626412 523.80265317 1580.88837433 526.8640045 C1580.90972563 557.87217688 1580.91183749 588.88032957 1580.90631729 619.88850745 C1580.90556149 624.1670494 1580.90483388 628.44559136 1580.90413532 632.72413332 C1580.90392668 633.99904468 1580.90392668 633.99904468 1580.90371383 635.29971182 C1580.90075629 654.17064168 1580.90377955 673.0415692 1580.90803161 691.91249864 C1580.90861376 694.4984356 1580.90918261 697.08437255 1580.90974724 699.67030951 C1580.91126233 706.60317328 1580.91278924 713.53603704 1580.91434024 720.4689008 C1580.92509091 768.84351901 1580.92980524 817.21813504 1580.92187008 865.59275396 C1580.92164762 866.95940234 1580.92164762 866.95940234 1580.92142067 868.35365978 C1580.91976181 878.51235345 1580.91801223 888.6710471 1580.91622766 898.82974075 C1580.91606664 899.74684244 1580.91590561 900.66394413 1580.91573971 901.60883678 C1580.91443249 909.04862266 1580.91443249 909.04862266 1580.91377852 912.73526369 C1580.90339108 971.37472597 1580.91114821 1030.01415823 1580.93477997 1088.6536165 C1580.94072393 1103.42708097 1580.94661574 1118.20054545 1580.9521893 1132.97401006 C1580.95253307 1133.88381062 1580.95287684 1134.79361118 1580.95323103 1135.73098145 C1580.963768 1163.79699114 1580.96935274 1191.86299832 1580.96974644 1219.92900999 C1580.96975922 1220.81089401 1580.96977201 1221.69277804 1580.96978518 1222.60138582 C1580.97001353 1241.96609912 1580.96900679 1261.3308122 1580.96687612 1280.69552537 C1580.96612144 1287.62551231 1580.96544321 1294.55549925 1580.96479597 1301.4854862 C1580.96463328 1303.20932131 1580.96446561 1304.93315642 1580.96429296 1306.65699152 C1580.96157838 1334.05741185 1580.97009779 1361.45781389 1580.98414706 1388.85823028 C1580.99859553 1417.24546394 1580.99805298 1445.63266298 1580.98077234 1474.01989548 C1580.97896839 1477.07730685 1580.97722817 1480.13471825 1580.97553811 1483.19212968 C1580.9751176 1483.94240763 1580.9746971 1484.69268557 1580.97426386 1485.4656992 C1580.96800093 1497.27771639 1580.97501632 1509.08968547 1580.9877473 1520.90169587 C1581.00002217 1532.55666408 1580.99736368 1544.21154207 1580.98052699 1555.86650666 C1580.97194602 1562.08403997 1580.96934442 1568.3013997 1580.98479631 1574.51892369 C1581.09286509 1621.30518684 1577.23836732 1665.53705114 1563.46822724 1710.52007158 C1563.24280243 1711.25741533 1563.01737763 1711.99475908 1562.78512177 1712.75444658 C1552.01206685 1747.47042685 1536.01868377 1780.91762227 1516.46822724 1811.52007158 C1515.85721161 1812.47784502 1515.24619599 1813.43561845 1514.61666474 1814.42241533 C1506.11561676 1827.45385718 1496.46394745 1839.72281574 1486.77193818 1851.88286455 C1485.89506361 1852.98404823 1485.02075435 1854.08727907 1484.1488913 1855.19243486 C1482.9074801 1856.76498245 1481.65681555 1858.33021192 1480.40572724 1859.89507158 C1479.69287568 1860.78968095 1478.98002411 1861.68429033 1478.24557099 1862.60600908 C1477.65904755 1863.2376497 1477.07252411 1863.86929033 1476.46822724 1864.52007158 C1475.80822724 1864.52007158 1475.14822724 1864.52007158 1474.46822724 1864.52007158 C1474.25811005 1865.05471025 1474.04799286 1865.58934892 1473.83150849 1866.14018877 C1471.93861709 1869.44461308 1469.33757198 1871.93601661 1466.65572724 1874.59819658 C1466.08620331 1875.16963396 1465.51667939 1875.74107133 1464.92989716 1876.329825 C1463.72866044 1877.53241947 1462.52490727 1878.73250492 1461.31881318 1879.93022783 C1459.46781769 1881.77047875 1457.62777278 1883.62119791 1455.78853974 1885.47319658 C1454.61991 1886.64050542 1453.4506604 1887.80719409 1452.28072724 1888.97319658 C1451.45254487 1889.80745164 1451.45254487 1889.80745164 1450.60763154 1890.65856035 C1446.69816359 1894.52007158 1446.69816359 1894.52007158 1444.46822724 1894.52007158 C1444.46822724 1895.18007158 1444.46822724 1895.84007158 1444.46822724 1896.52007158 C1442.93985454 1897.91606554 1441.34172625 1899.23594807 1439.71822724 1900.52007158 C1438.20422333 1901.72856767 1438.20422333 1901.72856767 1436.65963349 1902.96147783 C1436.12998993 1903.3831624 1435.60034638 1903.80484697 1435.05465302 1904.23930986 C1432.54736091 1906.26351029 1430.10852404 1908.36790754 1427.65572724 1910.45757158 C1421.72082359 1915.41099245 1415.53000109 1919.91024944 1409.18551239 1924.32182939 C1407.55735041 1925.45788555 1405.94017463 1926.60963953 1404.32369599 1927.76225908 C1395.30886119 1934.13501022 1385.95645514 1939.88431835 1376.46822724 1945.52007158 C1375.84174286 1945.89599443 1375.21525849 1946.27191728 1374.56978974 1946.65923173 C1347.62416249 1962.7427707 1317.69005273 1976.07974194 1287.46822724 1984.52007158 C1286.36478974 1984.83975908 1285.26135224 1985.15944658 1284.12447724 1985.48882158 C1266.41334566 1990.43517364 1248.29260927 1994.59060323 1230.02894124 1996.81284572 C1226.51225573 1997.24778555 1223.01353106 1997.73963288 1219.51335391 1998.29086603 C1197.24136032 2001.56778022 1174.75804043 2000.94756654 1152.30515872 2000.9116756 C1145.9843651 2000.90491583 1139.6635957 2000.91565682 1133.34280738 2000.92407144 C1122.28416321 2000.93640214 1111.22556243 2000.9377693 1100.16691384 2000.93152101 C1088.31259703 2000.92487161 1076.45830682 2000.92479536 1064.60399041 2000.93256814 C1063.85256585 2000.93305614 1063.10114129 2000.93354414 1062.32694629 2000.93404693 C1059.26600186 2000.93605533 1056.20505746 2000.93810846 1053.1441131 2000.94021867 C1022.13982269 2000.96157012 991.13555196 2000.96368179 960.13125605 2000.95816163 C955.85320305 2000.95740583 951.57515006 2000.95667822 947.29709706 2000.95597966 C946.44725121 2000.95584057 945.59740536 2000.95570147 944.7218066 2000.95555817 C925.85270927 2000.95260059 906.98361428 2000.95562393 888.11451736 2000.95987595 C885.52880078 2000.9604581 882.94308419 2000.96102695 880.3573676 2000.96159158 C873.42507507 2000.96310667 866.49278254 2000.96463358 859.56049002 2000.96618458 C811.1894452 2000.97693532 762.81840256 2000.98164954 714.44735703 2000.97371442 C713.53632055 2000.97356612 712.62528407 2000.97341781 711.68664042 2000.97326501 C701.52865813 2000.97160615 691.37067585 2000.96985657 681.21269357 2000.968072 C680.29565741 2000.96791098 679.37862124 2000.96774995 678.4337961 2000.96758405 C670.99461352 2000.96627684 670.99461352 2000.96627684 667.30816489 2000.96562286 C608.6754725 2000.95523588 550.04281014 2000.96299163 491.41012177 2000.98662431 C476.63888795 2000.99256829 461.86765411 2000.99846011 447.09642014 2001.00403364 C445.73191794 2001.00454929 445.73191794 2001.00454929 444.33985004 2001.00507537 C416.27670939 2001.01561279 388.21357125 2001.02119709 360.15042862 2001.02159078 C359.26859813 2001.02160356 358.38676764 2001.02161635 357.47821502 2001.02162952 C338.11440137 2001.02185787 318.75058795 2001.0208511 299.38677443 2001.01872046 C292.45704482 2001.01796578 285.5273152 2001.01728755 278.59758558 2001.01664031 C276.873819 2001.01647762 275.15005241 2001.01630995 273.42628583 2001.01613729 C246.02963339 2001.01342298 218.63299925 2001.02194101 191.23635074 2001.0359914 C162.85152347 2001.05044178 134.46673083 2001.04989494 106.08190471 2001.03261668 C103.02436211 2001.03081273 99.96681948 2001.02907252 96.90927681 2001.02738245 C96.15896899 2001.02696194 95.40866117 2001.02654144 94.63561675 2001.0261082 C82.82593046 2001.0198467 71.0162923 2001.02685842 59.20661281 2001.03959164 C47.55225192 2001.05187037 35.89798125 2001.0492028 24.24362397 2001.03237133 C18.02710779 2001.02379383 11.81076515 2001.02117999 5.59425831 2001.03664065 C-28.31659435 2001.11515504 -62.53035939 2000.82357818 -95.65677276 1992.64507158 C-97.1524209 1992.29376751 -98.64835973 1991.94369907 -100.14456573 1991.59477861 C-111.07823488 1989.01300119 -121.8680344 1986.05552754 -132.53177276 1982.52007158 C-134.11099338 1982.01031691 -135.69042462 1981.50121437 -137.27005401 1980.99272783 C-160.16462542 1973.55973236 -182.52635167 1964.31441982 -203.53177276 1952.52007158 C-205.42687441 1951.49788057 -207.32266472 1950.47696487 -209.21927276 1949.45757158 C-230.18512998 1937.95116177 -249.74532582 1924.29147313 -268.53177276 1909.52007158 C-269.52950714 1908.75179033 -270.52724151 1907.98350908 -271.55521026 1907.19194658 C-272.47560089 1906.47522783 -273.39599151 1905.75850908 -274.34427276 1905.02007158 C-275.15509307 1904.39100908 -275.96591339 1903.76194658 -276.80130401 1903.11382158 C-277.65788604 1902.32491533 -277.65788604 1902.32491533 -278.53177276 1901.52007158 C-278.53177276 1900.86007158 -278.53177276 1900.20007158 -278.53177276 1899.52007158 C-279.36128448 1899.16622392 -279.36128448 1899.16622392 -280.20755401 1898.80522783 C-288.91608475 1893.98992259 -296.33770124 1884.80705543 -303.34427276 1877.83257158 C-304.40134429 1876.78250932 -304.40134429 1876.78250932 -305.47977081 1875.71123369 C-310.03355678 1871.14349386 -314.34146403 1866.42207476 -318.53177276 1861.52007158 C-318.99897735 1860.97987382 -319.46618194 1860.43967607 -319.94754425 1859.88310869 C-329.74845793 1848.53706295 -338.79997627 1836.70782121 -347.53177276 1824.52007158 C-348.09251495 1823.75823564 -348.65325714 1822.9963997 -349.23099151 1822.21147783 C-354.50936092 1814.91527024 -358.97036074 1807.15312185 -363.45950714 1799.35747392 C-364.38811841 1797.76623339 -365.35504351 1796.19746922 -366.32864776 1794.63335283 C-367.53177276 1792.52007158 -367.53177276 1792.52007158 -367.53177276 1790.52007158 C-368.19177276 1790.52007158 -368.85177276 1790.52007158 -369.53177276 1790.52007158 C-369.83357452 1789.88617509 -370.13537628 1789.25227861 -370.44632354 1788.59917314 C-371.84862315 1785.65557358 -373.2524971 1782.71272896 -374.65677276 1779.77007158 C-375.41619171 1778.17751543 -375.41619171 1778.17751543 -376.19095245 1776.55278642 C-378.66164502 1771.38369133 -381.15673687 1766.23735431 -383.78177276 1761.14507158 C-395.9950498 1736.75321431 -404.12878487 1709.95442527 -410.53177276 1683.52007158 C-410.76734893 1682.55391923 -411.00292511 1681.58776689 -411.24563995 1680.5923372 C-419.30090073 1646.83148672 -420.12646375 1613.45472876 -420.05184434 1578.93591104 C-420.04249269 1572.53074658 -420.05657283 1566.12562261 -420.06748351 1559.72046645 C-420.08407635 1548.52457568 -420.0847407 1537.32875275 -420.07588592 1526.13285501 C-420.06646359 1514.13634278 -420.06584977 1502.13987692 -420.07567039 1490.1433645 C-420.07659615 1489.00113709 -420.07659615 1489.00113709 -420.07754061 1487.83583439 C-420.08008244 1484.73373737 -420.0826843 1481.63164042 -420.08536262 1478.52954352 C-420.11243746 1447.13963901 -420.11397758 1415.74977008 -420.10540461 1384.35985742 C-420.10423146 1380.03170055 -420.10309833 1375.70354368 -420.10200635 1371.37538679 C-420.10178921 1370.51556031 -420.10157207 1369.65573383 -420.10134835 1368.769852 C-420.09670452 1349.66704317 -420.10014828 1330.56423828 -420.10527286 1311.46142989 C-420.10597519 1308.84262731 -420.10666019 1306.22382472 -420.10734 1303.60502213 C-420.10916561 1296.58388642 -420.1110112 1289.56275072 -420.11289277 1282.54161503 C-420.12592798 1233.56575782 -420.13104188 1184.58990449 -420.11935916 1135.61404665 C-420.11914061 1134.69201742 -420.11892205 1133.7699882 -420.11869688 1132.8200187 C-420.11625195 1122.53975223 -420.11368203 1112.25948579 -420.11106149 1101.97921936 C-420.11070668 1100.58713613 -420.11070668 1100.58713613 -420.1103447 1099.16693001 C-420.10938732 1095.4138311 -420.10842977 1091.6607322 -420.10746455 1087.90763329 C-420.09221909 1028.55105195 -420.10021007 969.19451887 -420.12869659 909.83794267 C-420.13586191 894.87925211 -420.14296483 879.92056152 -420.14967838 864.96187074 C-420.1500926 864.04065198 -420.15050682 863.11943321 -420.15093359 862.17029872 C-420.16362833 833.75315846 -420.17012535 805.33602222 -420.1700851 776.9188791 C-420.1700843 776.02600998 -420.1700835 775.13314085 -420.17008267 774.21321508 C-420.16999846 754.60774515 -420.16835795 735.00227559 -420.16530428 715.39680591 C-420.1642205 708.38088628 -420.16322919 701.36496664 -420.16227342 694.349047 C-420.16203334 692.60386339 -420.16178694 690.85867978 -420.1615342 689.11349617 C-420.15755054 661.37563514 -420.16748823 633.63780159 -420.18423845 605.89994603 C-420.20145153 577.16825787 -420.19987376 548.43662378 -420.17733244 519.70493863 C-420.1749762 516.61075344 -420.17269927 513.5165682 -420.17048469 510.4223829 C-420.16993398 509.66308332 -420.16938328 508.90378374 -420.16881588 508.12147508 C-420.1605907 496.16627706 -420.16895852 484.21115269 -420.1844629 472.25596435 C-420.19940095 460.46068295 -420.19568015 448.66552659 -420.1742285 436.87025452 C-420.16328477 430.57765779 -420.15982027 424.28532862 -420.17890379 417.9927452 C-420.28451173 380.52153216 -417.4531883 345.00338437 -408.53177276 308.52007158 C-408.32584503 307.67541338 -408.11991729 306.83075517 -407.90774932 305.96050127 C-404.64587956 292.87503037 -400.15657509 280.17671842 -395.53177276 267.52007158 C-395.10203155 266.32752763 -395.10203155 266.32752763 -394.6636087 265.11089189 C-385.49449278 239.94183107 -373.14321704 214.95546856 -358.53177276 192.52007158 C-358.0875296 191.83090654 -357.64328643 191.1417415 -357.18558136 190.43169267 C-346.83655505 174.42737766 -335.47933249 159.08380024 -323.02273956 144.65727861 C-320.51123395 141.77300956 -320.51123395 141.77300956 -318.53177276 138.52007158 C-317.87177276 138.52007158 -317.21177276 138.52007158 -316.53177276 138.52007158 C-316.15665557 137.65188798 -316.15665557 137.65188798 -315.77396026 136.76616533 C-314.36657525 134.22136539 -312.75894345 132.58558327 -310.65677276 130.58257158 C-308.41990914 128.40996256 -306.39892571 126.35099351 -304.46927276 123.89507158 C-302.29143823 121.22546796 -299.88331342 119.17899559 -297.24661651 116.97710283 C-294.16839823 114.36166907 -291.40915068 111.43133197 -288.60989776 108.52397783 C-282.92440003 102.70743139 -276.88945449 97.58342374 -270.53177276 92.52007158 C-269.41986078 91.60751167 -268.30923472 90.69338321 -267.19974151 89.77788408 C-247.37361391 73.51449876 -225.85086619 59.87216901 -203.39944854 47.55229814 C-201.65191352 46.58647094 -199.91746468 45.59707162 -198.18411651 44.60600908 C-168.86193374 28.24483706 -136.04598145 17.38450056 -103.53177276 9.52007158 C-102.56030304 9.28449541 -101.58883331 9.04891923 -100.58792511 8.80620439 C-67.10111051 0.86900844 -34.23960922 -0.07384137 0 0 Z " fill="#3ACE01" transform="translate(419.5317727616057,-0.5200715782120824)"/>
<path d="M0 0 C1.45661434 -0.00067613 2.91322857 -0.00164871 4.36984253 -0.00289917 C7.42088904 -0.00436815 10.47190615 -0.00225178 13.52294922 0.00244141 C17.36070873 0.00806803 21.19839781 0.00480718 25.03615475 -0.00100231 C41.31635466 -0.02187847 57.55166196 0.13339678 73.81298828 1.01635742 C76.86502185 1.17490894 79.91845391 1.27916335 82.97265625 1.38671875 C101.1834136 2.20311785 119.18298146 4.54311768 137.2421875 6.9453125 C138.50485443 7.11185333 139.76752136 7.27839417 141.06845093 7.44998169 C154.81476845 9.2749075 168.51200814 11.29204462 182.16796875 13.70703125 C183.28777634 13.90408157 184.40758392 14.1011319 185.56132507 14.30415344 C191.95822741 15.46571421 198.24763067 16.8620524 204.53865051 18.50424194 C207.48632576 19.24064681 210.41497479 19.70276533 213.4296875 20.0703125 C219.26926449 20.91048945 224.74817116 22.37421957 230.39453125 24.0625 C234.22049345 25.18129791 238.06038702 26.17806837 241.9296875 27.1328125 C242.59572998 27.29765137 243.26177246 27.46249023 243.94799805 27.63232422 C245.98309095 28.1344232 248.0187716 28.63406181 250.0546875 29.1328125 C252.76377178 29.79647334 255.47195052 30.46367818 258.1796875 31.1328125 C259.94699219 31.5659375 259.94699219 31.5659375 261.75 32.0078125 C273.85848898 35.11424146 285.71049118 38.90796886 297.5546875 42.8828125 C298.33994812 43.14537842 299.12520874 43.40794434 299.93426514 43.6784668 C315.20292932 48.78650643 330.41685072 54.02575386 345.34912109 60.05737305 C348.32157296 61.23889718 351.31214985 62.36646184 354.3046875 63.49609375 C361.33479851 66.19309623 368.19546507 69.21794896 375.0546875 72.3203125 C375.68131287 72.60282867 376.30793823 72.88534485 376.95355225 73.17642212 C394.94450032 81.28888738 412.70474364 89.71884404 430.0546875 99.1328125 C431.06805176 99.68066406 432.08141602 100.22851562 433.12548828 100.79296875 C460.86282436 115.83750806 487.56452244 132.5268526 513.0546875 151.1328125 C513.80959473 151.68259766 514.56450195 152.23238281 515.34228516 152.79882812 C527.28228632 161.5058224 538.93185602 170.41925085 550.17822266 180.0078125 C553.50641796 182.84247314 556.88241295 185.59911088 560.3046875 188.3203125 C566.127175 193.04680235 571.53354799 198.19519274 576.95410156 203.3737793 C580.7373618 206.98382469 584.5620212 210.49622687 588.56933594 213.85693359 C590.86010064 215.82464174 592.94674685 217.97217334 595.0546875 220.1328125 C595.58835937 220.65617188 596.12203125 221.17953125 596.671875 221.71875 C599.72301008 224.71564268 602.64269595 227.76277372 605.4296875 231.0078125 C607.97415203 233.96688844 610.63410303 236.72252971 613.4296875 239.4453125 C617.45529423 243.42347942 621.00913144 247.63893268 624.54296875 252.0546875 C627.44624406 255.61266719 630.46350065 259.05681456 633.4921875 262.5078125 C639.30658692 269.1742644 644.79939853 276.01683599 650.0546875 283.1328125 C650.54936523 283.80151367 651.04404297 284.47021484 651.55371094 285.15917969 C663.42463966 301.26711681 674.48921238 317.82270131 684.76513672 334.99169922 C685.96129095 336.97774098 687.17820189 338.94910181 688.40234375 340.91796875 C694.2964642 350.51999985 699.38615914 360.50434946 704.4296875 370.5703125 C704.77857025 371.2644928 705.127453 371.9586731 705.48690796 372.67388916 C708.99587847 379.67238474 712.41243544 386.65598923 715.21728516 393.97387695 C716.0093307 396.01587658 716.86949291 398.00543217 717.7734375 400 C722.66791996 410.93137786 726.54196991 422.14952009 730.3046875 433.5078125 C730.56080811 434.28058533 730.81692871 435.05335815 731.08081055 435.84954834 C740.16294584 463.3268683 740.16294584 463.3268683 741.5625 472.6953125 C741.97968768 475.16361181 741.97968768 475.16361181 743.0234375 477.47265625 C744.31850642 480.81334538 744.86621202 484.17604776 745.4296875 487.6953125 C746.21216225 492.39933062 747.02092133 497.08493946 748.03125 501.74609375 C752.97558844 524.61810539 755.10882673 548.16652505 755.328125 571.55078125 C755.34069839 572.79082413 755.35327179 574.030867 755.3662262 575.30848694 C755.39890242 579.31247013 755.41918827 583.31622135 755.4296875 587.3203125 C755.43154682 588.00544418 755.43340614 588.69057587 755.43532181 589.39646912 C755.50846006 626.13345811 751.33405279 661.35951607 743.0546875 697.1328125 C742.64041463 698.99734911 742.22632788 700.86192708 741.8125 702.7265625 C738.80495485 715.83215276 734.42007898 728.49791079 730.05810547 741.20410156 C728.34507502 746.20398315 726.66552137 751.213736 725.0625 756.25 C724.77117187 757.16007812 724.47984375 758.07015625 724.1796875 759.0078125 C723.75042969 760.36519531 723.75042969 760.36519531 723.3125 761.75 C721.87957286 765.603773 720.19833437 769.29523384 718.47753906 773.02783203 C716.97826997 776.29957265 715.52280204 779.58833352 714.07421875 782.8828125 C697.90717657 819.51220884 677.98266516 853.98467925 654.0546875 886.1328125 C652.99991576 887.56113571 651.94522775 888.98952076 650.890625 890.41796875 C642.86557921 901.24447132 634.52091731 911.65019194 625.39453125 921.578125 C623.39633902 923.75979065 621.43319861 925.96292559 619.4921875 928.1953125 C613.50322622 935.06996524 607.45134989 941.8162583 600.9453125 948.20703125 C599.09253122 950.09426507 597.38522333 952.04996982 595.6796875 954.0703125 C592.28456395 958.02100173 588.50701763 961.40185976 584.6015625 964.83984375 C582.12270127 967.07157924 579.7696158 969.38157496 577.4296875 971.7578125 C573.00123164 976.23247833 568.34846614 980.33737829 563.55078125 984.40917969 C555.3938751 991.33676487 547.41822788 998.40796153 539.59082031 1005.70556641 C531.80511294 1012.93939433 523.8815749 1020.01205434 515.80078125 1026.9140625 C514.59371437 1027.9452708 513.38668413 1028.97652198 512.1796875 1030.0078125 C511.57108887 1030.52754639 510.96249023 1031.04728027 510.33544922 1031.58276367 C506.79825793 1034.61186845 503.31067696 1037.68437553 499.8671875 1040.8203125 C495.73040946 1044.57430426 491.44747519 1048.10427706 487.10546875 1051.6171875 C483.53411752 1054.56206611 480.04265656 1057.59010675 476.5546875 1060.6328125 C470.48429384 1065.92295579 464.31698162 1071.07047893 458.0546875 1076.1328125 C456.22042052 1077.63167066 454.38709798 1079.13168527 452.5546875 1080.6328125 C451.64074219 1081.38046875 450.72679687 1082.128125 449.78515625 1082.8984375 C448.01645955 1084.34578301 446.24820207 1085.79366551 444.48046875 1087.2421875 C441.67369997 1089.54130453 438.86467577 1091.83763124 436.0546875 1094.1328125 C435.15508301 1094.86806152 435.15508301 1094.86806152 434.23730469 1095.61816406 C422.27527484 1105.38886081 410.19018039 1114.98229269 397.9309082 1124.37719727 C394.1136865 1127.3061599 390.32986549 1130.27494903 386.5546875 1133.2578125 C366.5364655 1149.04679245 346.04028609 1164.2332557 325.5 1179.33300781 C323.03676818 1181.14600152 320.57654205 1182.96300093 318.1171875 1184.78125 C308.82223625 1191.65074633 299.48934661 1198.45653678 290.0546875 1205.1328125 C289.43513184 1205.57238281 288.81557617 1206.01195312 288.17724609 1206.46484375 C241.34163729 1239.69320473 193.75413165 1271.9355497 144.57568359 1301.61083984 C142.38526637 1302.93323583 140.19783247 1304.26035243 138.01171875 1305.58984375 C120.66263362 1316.11225913 102.93551503 1325.97159552 85.04248047 1335.53466797 C83.08904013 1336.57954626 81.13745764 1337.62790727 79.18798828 1338.68017578 C63.81587598 1346.9697652 48.11087268 1354.26657452 32.0546875 1361.1328125 C31.27061523 1361.47070801 30.48654297 1361.80860352 29.67871094 1362.15673828 C15.39610519 1368.27352201 0.69082137 1373.25179599 -14.9453125 1373.4453125 C-15.72648438 1373.47431641 -16.50765625 1373.50332031 -17.3125 1373.53320312 C-23.81365957 1373.60434376 -27.36358876 1371.63860319 -32.0703125 1367.0703125 C-41.18443488 1352.79152078 -39.20951169 1334.78136488 -35.734375 1318.8671875 C-34.70210602 1313.98179571 -34.12969741 1309.07980793 -33.5703125 1304.12109375 C-33.10865015 1300.70890619 -32.32027004 1297.40926494 -31.515625 1294.0625 C-29.86467446 1287.07003238 -28.79068266 1280.0600665 -27.8203125 1272.9453125 C-27.65144531 1271.75228516 -27.48257813 1270.55925781 -27.30859375 1269.33007812 C-23.76106838 1243.92476847 -21.45587502 1217.23196684 -36.9453125 1195.1328125 C-45.64924127 1184.16223562 -57.6109232 1176.4092546 -71.10546875 1172.88671875 C-73.9453125 1172.1328125 -73.9453125 1172.1328125 -76.22290039 1171.14160156 C-79.30314356 1170.0002183 -82.07978323 1169.6043182 -85.34375 1169.23828125 C-86.61307373 1169.0899585 -87.88239746 1168.94163574 -89.19018555 1168.78881836 C-89.86286469 1168.7127536 -90.53554382 1168.63668884 -91.22860718 1168.55831909 C-103.40777083 1167.17250188 -115.53182221 1165.52230835 -127.6328125 1163.5703125 C-129.49848877 1163.27386841 -129.49848877 1163.27386841 -131.40185547 1162.97143555 C-138.34773995 1161.83378798 -145.18116777 1160.44402648 -152.02758789 1158.81323242 C-157.05747696 1157.64025101 -162.13397774 1156.78071456 -167.21875 1155.87890625 C-170.9453125 1155.1328125 -170.9453125 1155.1328125 -174.56640625 1154.09765625 C-177.61624227 1153.22677822 -180.4969667 1152.68642183 -183.6328125 1152.2578125 C-189.0163175 1151.41202493 -193.88234122 1149.88558358 -199.0078125 1148.0703125 C-201.85073635 1147.16299638 -204.56425578 1146.60110562 -207.5078125 1146.1328125 C-212.2726368 1145.36605916 -216.48933448 1143.9595811 -220.94921875 1142.1328125 C-223.54996834 1141.2647657 -225.95443163 1140.71719717 -228.640625 1140.21875 C-234.02698511 1139.19125061 -239.08567036 1137.55631721 -244.2578125 1135.7578125 C-246.11678233 1135.12381074 -247.97615628 1134.49099266 -249.8359375 1133.859375 C-251.16334961 1133.40739746 -251.16334961 1133.40739746 -252.51757812 1132.94628906 C-255.49705804 1131.94793558 -258.49644244 1131.02998234 -261.5078125 1130.1328125 C-267.09978137 1128.43916135 -272.61675238 1126.55655939 -278.1328125 1124.6328125 C-279.36269897 1124.20548828 -279.36269897 1124.20548828 -280.61743164 1123.76953125 C-286.46084299 1121.71522069 -292.20623559 1119.46075397 -297.9453125 1117.1328125 C-299.58809304 1116.47674012 -301.2313214 1115.82178793 -302.875 1115.16796875 C-318.09329932 1109.10065117 -333.22694541 1102.95369623 -347.984375 1095.82421875 C-348.81992416 1095.42100403 -349.65547333 1095.01778931 -350.51634216 1094.60235596 C-353.20259657 1093.30327222 -355.8868738 1092.0002021 -358.5703125 1090.6953125 C-359.94508255 1090.02693863 -359.94508255 1090.02693863 -361.34762573 1089.34506226 C-374.73393835 1082.82192642 -387.84597805 1076.03309692 -400.67431641 1068.45996094 C-403.49988412 1066.80872614 -406.36194398 1065.23014249 -409.22973633 1063.65380859 C-452.41078735 1039.85086431 -492.94808308 1009.30510985 -529.0546875 975.8046875 C-530.8849681 974.11291462 -532.72735324 972.43406604 -534.5859375 970.7734375 C-541.70140274 964.38984868 -548.49171424 957.69451715 -555.2578125 950.9453125 C-555.73393982 950.47177338 -556.21006714 949.99823425 -556.70062256 949.51034546 C-561.79571704 944.43710184 -566.77778446 939.32388564 -571.45874023 933.86450195 C-573.52093138 931.46228127 -575.67217793 929.14565009 -577.8203125 926.8203125 C-582.74108552 921.4178373 -587.3723174 915.83043669 -591.9453125 910.1328125 C-592.86920699 909.00082464 -593.7937154 907.86933763 -594.71875 906.73828125 C-601.94483109 897.85997557 -608.72290027 888.70910489 -615.34716797 879.375 C-616.88910444 877.21167209 -618.44784309 875.06156389 -620.01171875 872.9140625 C-627.09902732 863.12156896 -633.42453176 852.99042179 -639.52246094 842.55664062 C-640.87985553 840.24431847 -642.2561792 837.9446412 -643.640625 835.6484375 C-648.84097737 826.99067564 -653.56412487 818.20120544 -657.97314453 809.11669922 C-658.95471544 807.11362407 -659.95940276 805.12393731 -660.97265625 803.13671875 C-665.04637946 795.13556356 -668.81916464 787.0574214 -672.35546875 778.8046875 C-673.69087536 775.69166552 -675.11722045 772.63040667 -676.5703125 769.5703125 C-678.98417892 764.28802041 -680.78826583 758.84946667 -682.56640625 753.328125 C-683.52584847 750.36437339 -684.54530537 747.42922355 -685.60546875 744.5 C-694.68441035 719.38932023 -700.76349016 693.30228921 -705.9453125 667.1328125 C-706.10609787 666.32159943 -706.26688324 665.51038635 -706.43254089 664.67459106 C-707.67079136 658.17212876 -708.47830657 651.72767527 -709.015625 645.1328125 C-709.10189651 644.11171387 -709.18816803 643.09061523 -709.27705383 642.03857422 C-709.55091328 638.73733355 -709.8129707 635.4353805 -710.0703125 632.1328125 C-710.15902618 630.99489258 -710.24773987 629.85697266 -710.33914185 628.68457031 C-711.83737582 609.11748021 -712.75147883 589.7453844 -711.9453125 570.1328125 C-711.9113739 569.30412659 -711.8774353 568.47544067 -711.84246826 567.62164307 C-710.84284767 544.27673259 -708.64569169 521.588356 -703.69921875 498.73681641 C-702.58621965 493.41619054 -701.64078115 488.0675431 -700.69140625 482.71557617 C-700.00037079 479.39720397 -699.06280231 476.3276504 -697.9453125 473.1328125 C-697.50243801 471.09667005 -697.08751768 469.05431903 -696.6953125 467.0078125 C-693.46776357 451.66081734 -688.29689183 436.93051719 -682.75048828 422.29003906 C-681.55548024 419.0883741 -680.44204606 415.86087334 -679.3203125 412.6328125 C-677.56140607 407.69193619 -675.59829052 402.93594324 -673.3671875 398.19140625 C-672.30281705 395.90184014 -671.27540978 393.60960556 -670.2734375 391.29296875 C-653.0281568 351.50004494 -630.3754285 314.48385314 -603.9453125 280.1328125 C-603.26154541 279.23852539 -603.26154541 279.23852539 -602.56396484 278.32617188 C-593.3191446 266.25700748 -583.36919151 254.81735967 -573.140625 243.57421875 C-571.89938991 242.19384165 -570.66463499 240.80737334 -569.45222473 239.40161133 C-565.38810001 234.69263656 -561.16640253 230.20663607 -556.76171875 225.81640625 C-556.10251938 225.15625015 -555.44332001 224.49609406 -554.7641449 223.81593323 C-553.38134415 222.43245744 -551.99730174 221.05022167 -550.61206055 219.66918945 C-548.51300907 217.57549581 -546.4193531 215.47651376 -544.32617188 213.37695312 C-542.97167464 212.02311679 -541.61686719 210.66959075 -540.26171875 209.31640625 C-539.64688126 208.69954453 -539.03204376 208.0826828 -538.39857483 207.4471283 C-534.0752924 203.14665579 -529.57320068 199.10217945 -524.9453125 195.1328125 C-524.34273117 194.61288727 -523.74014984 194.09296204 -523.11930847 193.55728149 C-519.66743402 190.57953651 -516.19846772 187.62169919 -512.73144531 184.66162109 C-511.06649086 183.23653296 -509.40755168 181.80477772 -507.75 180.37109375 C-499.09496666 172.91894034 -490.08420744 165.97919929 -480.9453125 159.1328125 C-480.16285156 158.54532227 -479.38039063 157.95783203 -478.57421875 157.35253906 C-468.84437778 150.06304313 -459.02742289 142.97654853 -448.82861328 136.35693359 C-446.86089373 135.07794139 -444.90096634 133.78754704 -442.94140625 132.49609375 C-432.12620811 125.39806265 -421.09604722 118.68906111 -409.9453125 112.1328125 C-409.13143066 111.65231445 -408.31754883 111.17181641 -407.47900391 110.67675781 C-388.04546028 99.24344017 -367.73449642 87.70148526 -346.91796875 78.9765625 C-344.45068728 77.92125003 -342.0117548 76.80907199 -339.5703125 75.6953125 C-314.08881592 64.07823943 -288.21096456 53.67789656 -261.57910156 45.00048828 C-258.92091695 44.12477563 -256.27226564 43.2245533 -253.625 42.31640625 C-243.58851394 38.88517624 -233.54840238 35.84432025 -223.265625 33.2421875 C-219.60860634 32.31640026 -215.9967426 31.27860359 -212.3828125 30.1953125 C-203.32933484 27.56411199 -194.11366308 25.58262744 -184.921875 23.5 C-181.58841512 22.74455336 -178.26388408 21.97426667 -174.953125 21.125 C-140.56023486 12.41332097 -105.19359915 7.63286205 -69.9453125 4.1328125 C-67.84373777 3.91548284 -65.74217389 3.69804815 -63.640625 3.48046875 C-53.1530253 2.42997167 -42.68246731 1.81418833 -32.14746094 1.47387695 C-31.20805664 1.44253662 -30.26865234 1.41119629 -29.30078125 1.37890625 C-28.48246826 1.35497803 -27.66415527 1.3310498 -26.82104492 1.30639648 C-24.5550138 1.16961508 -22.29589041 0.91838866 -20.04467773 0.62573242 C-13.38214988 -0.1359514 -6.69662922 -0.0110882 0 0 Z " fill="#FEFEFE" transform="translate(975.9453125,330.8671875)"/>
<path d="M0 0 C9.97350592 5.07896887 16.68123082 13.03152542 22.7265625 22.23046875 C26.06192861 27.24419963 29.76921045 31.97782896 33.4375 36.75 C38.12476743 42.86361773 42.7868992 48.98246264 47.2890625 55.234375 C55.18105344 66.17084184 63.23542815 76.98194893 71.4375 87.6875 C76.968148 94.90668815 82.36264701 102.20473625 87.65478516 109.60009766 C91.80243058 115.3785947 96.09338289 121.03399032 100.43481445 126.66772461 C105.0432299 132.65942322 109.53251574 138.73335293 114.00366211 144.82788086 C118.25748389 150.62150514 122.5545238 156.38094002 126.875 162.125 C132.50529512 169.61225841 138.08793886 177.13285568 143.6328125 184.68359375 C144.16777344 185.41191406 144.70273438 186.14023437 145.25390625 186.890625 C145.76711426 187.59123047 146.28032227 188.29183594 146.80908203 189.01367188 C147.89537247 190.47831791 148.99641776 191.9320906 150.10888672 193.37695312 C150.65947754 194.09302734 151.21006836 194.80910156 151.77734375 195.546875 C152.27613037 196.1872168 152.77491699 196.82755859 153.28881836 197.48730469 C154.375 199.125 154.375 199.125 154.375 201.125 C155.035 201.125 155.695 201.125 156.375 201.125 C156.36854745 200.23600195 156.3620949 199.3470039 156.35544682 198.43106651 C156.20054633 176.75378179 156.0848697 155.07659305 156.0123148 133.39887047 C155.97629093 122.91545045 155.92721733 112.4324009 155.84692383 101.94921875 C155.77693589 92.80714521 155.73194101 83.66534011 155.71638054 74.52300608 C155.70729114 69.68650155 155.6860802 64.85076466 155.6348896 60.01450729 C155.58699599 55.45230879 155.57279476 50.89118619 155.58324623 46.32876015 C155.58133726 44.66397164 155.56763938 42.99914313 155.54056168 41.33457375 C155.33969446 28.33720115 157.70328932 17.99621582 166.8125 8.0625 C177.93791719 -1.79357429 189.53652213 -2.83311839 203.90234375 -2.10449219 C214.0970763 -1.15829861 221.66207111 4.77157147 228.375 12.125 C235.04165576 20.61126062 235.67093604 28.7935509 235.64242554 39.28192139 C235.64695665 40.50520684 235.65148776 41.7284923 235.65615618 42.98884702 C235.66660666 46.37233762 235.66812942 49.75561521 235.66576743 53.13910675 C235.66535847 56.79295871 235.67640596 60.44677923 235.68588257 64.10061646 C235.70247666 71.25488235 235.7079914 78.40911528 235.70910732 85.56339881 C235.71005859 91.38074363 235.7141728 97.19807761 235.72050858 103.01541901 C235.73811694 119.5196037 235.74734812 136.02376242 235.74584763 152.52795658 C235.74576772 153.41720747 235.7456878 154.30645836 235.74560547 155.22265625 C235.74552371 156.11299676 235.74544195 157.00333726 235.74535771 157.92065778 C235.74454501 172.34611348 235.76367973 186.77146472 235.7918822 201.19689021 C235.8206319 216.01954503 235.83442134 230.84214895 235.83269465 245.66483235 C235.83203145 253.98231624 235.83749293 262.29969063 235.85905075 270.61714935 C235.87729006 277.69948636 235.88158741 284.78166423 235.8680319 291.8640146 C235.86151594 295.4745625 235.86133485 299.08480534 235.8787384 302.69532394 C235.89744698 306.61707067 235.88487865 310.53837543 235.86947632 314.46014404 C235.87976344 315.59061244 235.89005057 316.72108083 235.90064943 317.88580585 C235.78972578 330.70088196 231.34173286 339.56159386 222.875 348.875 C213.39115118 357.41046393 202.82003683 358.88418871 190.4765625 358.4765625 C184.97466829 358.12429935 180.26987309 356.64380262 175.375 354.125 C174.75753906 353.82078125 174.14007812 353.5165625 173.50390625 353.203125 C166.99326781 349.29373471 162.77160138 342.15200101 158.375 336.125 C157.49948475 334.94082411 156.62318193 333.75723009 155.74609375 332.57421875 C150.24183102 325.12828371 144.83526419 317.61148661 139.42260742 310.09887695 C134.86128634 303.77685777 130.23928295 297.50097379 125.60620117 291.23144531 C121.66131877 285.88708323 117.75565663 280.51614484 113.875 275.125 C107.11516251 265.73719227 100.25082656 256.42803505 93.375 247.125 C85.95378505 237.08405114 78.56328194 227.02433596 71.26708984 216.89208984 C65.03837597 208.25250396 58.70545986 199.6901506 52.375 191.125 C50.0197337 187.9383104 47.66534657 184.75097668 45.3125 181.5625 C44.45664307 180.4027063 44.45664307 180.4027063 43.58349609 179.21948242 C38.80140227 172.72756321 34.07490264 166.19629734 29.37280273 159.64624023 C28.86177002 158.93540283 28.3507373 158.22456543 27.82421875 157.4921875 C27.14879028 156.55028564 27.14879028 156.55028564 26.4597168 155.58935547 C25.44946838 154.15036593 25.44946838 154.15036593 24.375 153.125 C24.37353344 154.00130223 24.37206688 154.87760447 24.37055588 155.78046131 C24.33345735 177.13144038 24.27440218 198.48226109 24.19109726 219.83311176 C24.15133712 230.15835636 24.11892925 240.48352507 24.10400391 250.80883789 C24.09097172 259.8114318 24.06396704 268.81385853 24.02038693 277.81635827 C23.99780739 282.58037829 23.98208721 287.34419237 23.98311615 292.10827065 C23.98386484 296.59896028 23.96583067 301.08919529 23.93383217 305.57976723 C23.92536347 307.22154667 23.92356251 308.86337729 23.92919731 310.50516891 C23.97060937 324.43429286 21.49764103 336.03983992 12.0625 346.75 C1.70725546 355.90114634 -6.94910642 358.86655806 -20.84765625 358.4140625 C-25.57327455 358.05243297 -29.35029598 357.11183427 -33.625 355.125 C-34.29660156 354.85816406 -34.96820312 354.59132813 -35.66015625 354.31640625 C-43.96097442 350.71778566 -50.93003718 343.37421932 -54.625 335.125 C-56.74299374 328.29720972 -56.91181302 321.95934863 -56.89242554 314.84109497 C-56.89695665 313.61624952 -56.90148776 312.39140407 -56.90615618 311.1294421 C-56.91659548 307.74628011 -56.91813136 304.36333141 -56.91576743 300.98016858 C-56.91535807 297.32499003 -56.92640964 293.66984279 -56.93588257 290.01467896 C-56.95246681 282.86021727 -56.95799092 275.70578855 -56.95910732 268.55130924 C-56.96005888 262.73445648 -56.96417452 256.91761456 -56.97050858 251.10076523 C-56.98811278 234.59742302 -56.99734855 218.09410678 -56.99584763 201.59075512 C-56.99576772 200.70180691 -56.9956878 199.81285869 -56.99560547 198.89697266 C-56.99552371 198.00693534 -56.99544195 197.11689803 -56.99535771 196.19988988 C-56.9945447 181.77382223 -57.01368814 167.34785895 -57.0418822 152.92182149 C-57.07062442 138.09800982 -57.08442181 123.27424905 -57.08269465 108.45040882 C-57.08203128 100.13241278 -57.08750035 91.81452622 -57.10905075 83.49655533 C-57.12728001 76.41531189 -57.13159549 69.33422759 -57.1180319 62.25297083 C-57.11151142 58.64253987 -57.11135142 55.03241407 -57.1287384 51.42201233 C-57.14742102 47.50215852 -57.13489077 43.58274795 -57.11947632 39.66287231 C-57.13490701 37.96382364 -57.13490701 37.96382364 -57.15064943 36.23045075 C-57.05899257 25.66726495 -53.90953281 16.8930195 -46.625 9.125 C-34.12607751 -2.23350985 -16.14643114 -6.05757787 0 0 Z " fill="#3ACE01" transform="translate(979.625,747.875)"/>
<path d="M0 0 C0.6507337 -0.00382555 1.30146741 -0.00765109 1.97192031 -0.01159257 C4.13881932 -0.02185957 6.30545023 -0.01794248 8.47236633 -0.01396179 C10.03174076 -0.01831192 11.59111305 -0.02349607 13.15048218 -0.02944946 C17.37802752 -0.04282235 21.60548335 -0.04341975 25.83304572 -0.04088616 C29.36893931 -0.03981471 32.90481492 -0.04470458 36.44070464 -0.04949158 C44.78916289 -0.06058211 53.13757616 -0.06102755 61.48603821 -0.05497742 C70.07927578 -0.04894522 78.67234931 -0.06123048 87.2655589 -0.08254749 C94.65773326 -0.10020636 102.04985562 -0.10615787 109.44205028 -0.10290974 C113.85050816 -0.10110264 118.25884916 -0.103675 122.66728783 -0.11762428 C126.81815083 -0.13026694 130.96875994 -0.12819815 135.11961937 -0.11521339 C136.63564645 -0.11286153 138.15169175 -0.11553193 139.66769791 -0.12383652 C153.85849274 -0.19591258 164.43330042 1.61322333 175.27827454 11.26069641 C178.00054762 14.06882969 180.21220622 16.94263562 182.27827454 20.26069641 C182.71139954 20.95034485 183.14452454 21.63999329 183.59077454 22.35054016 C187.99328163 31.04854896 188.22825065 43.30911118 185.62055969 52.60542297 C182.29373545 61.60463064 177.26552205 68.85687495 169.27827454 74.26069641 C168.49132706 74.79578827 167.70437958 75.33088013 166.89358521 75.88218689 C155.35451129 82.36375642 142.69369538 81.01235159 129.85249329 80.84663391 C127.29275512 80.83542725 124.73300399 80.82689402 122.17324829 80.82090759 C116.15613636 80.80044595 110.13982237 80.75330328 104.12302858 80.69281065 C96.58961944 80.61873999 89.05609843 80.58622971 81.52241516 80.55366516 C68.10718452 80.49549672 54.69340491 80.37526498 41.27827454 80.26069641 C41.27827454 100.39069641 41.27827454 120.52069641 41.27827454 141.26069641 C49.57339172 141.17948547 57.86850891 141.09827454 66.41499329 141.01460266 C72.35905811 140.9742558 78.30301925 140.93837807 84.24713421 140.90891933 C91.9349894 140.8702272 99.62230915 140.82121688 107.30976868 140.73262024 C114.05309104 140.6549422 120.79583373 140.61463958 127.53957558 140.59655571 C130.10509665 140.58367782 132.67058804 140.55853044 135.23586082 140.52058601 C152.30403684 140.27829047 163.14273946 140.8342932 176.27827454 152.57319641 C185.51018243 162.50089148 186.76813685 172.9038447 186.55561829 185.86616516 C186.33568613 191.06903771 185.10934215 194.8910051 182.27827454 199.26069641 C181.84257141 200.01479797 181.40686829 200.76889954 180.95796204 201.54585266 C175.35315604 210.71874553 168.06906024 216.88203887 157.58501053 219.79844284 C148.33500539 221.65207842 138.45098184 220.85075994 129.07124329 220.74897766 C126.53392233 220.73963858 123.99659228 220.73252765 121.45925903 220.72753906 C115.49543288 220.71048934 109.53202397 220.67120449 103.56841117 220.62079161 C94.90493031 220.54917068 86.2412864 220.52333468 77.57758331 220.49175262 C65.47742768 220.44345991 53.37849152 220.34758165 41.27827454 220.26069641 C41.27827454 240.39069641 41.27827454 260.52069641 41.27827454 281.26069641 C49.46382141 281.21429016 57.64936829 281.16788391 66.08296204 281.12007141 C71.93938653 281.0970241 77.7957768 281.07652096 83.65221786 281.05968094 C91.23177409 281.03754848 98.8111535 281.00948667 106.39057922 280.9589386 C113.03657223 280.91463703 119.68242442 280.89153744 126.32857132 280.88118744 C128.86022578 280.87381444 131.39187014 280.85941677 133.92344284 280.83777618 C137.47798283 280.80860798 141.031739 280.80474617 144.58638 280.80659485 C145.62576218 280.79221375 146.66514435 280.77783264 147.73602295 280.76301575 C159.88288997 280.83107485 168.36536358 285.73269141 177.03218079 293.91694641 C185.20277366 302.59948119 186.66578866 313.60149982 186.48921204 325.01850891 C186.10069496 335.9977136 180.22630571 345.13272682 172.40327454 352.62397766 C164.56824268 358.65868051 156.4423989 361.37192159 146.67680359 361.40786743 C146.02692431 361.41154412 145.37704503 361.41522081 144.70747244 361.41900891 C142.53754287 361.42999054 140.36766127 361.43388017 138.19770813 361.43769836 C136.63848216 361.44396726 135.07925767 361.45061443 133.52003479 361.45761108 C128.40560436 361.47860562 123.29117379 361.48901009 118.17671204 361.49897766 C116.41217153 361.50302713 114.64763117 361.50714411 112.88309097 361.51132774 C104.59052868 361.53037036 96.29797523 361.54460258 88.00539529 361.55293971 C78.45160516 361.56270489 68.89804716 361.58900949 59.34433877 361.62944061 C51.94794696 361.65966147 44.55162146 361.67441429 37.15516913 361.67772073 C32.74328332 361.68006464 28.33164576 361.68893875 23.91982651 361.7141819 C19.76483842 361.73757209 15.61026011 361.74165226 11.45522308 361.73142052 C9.93757128 361.73092767 8.41989853 361.73717325 6.90230942 361.75097656 C-5.73634403 361.85941969 -16.14665693 359.97243909 -25.72172546 351.26069641 C-26.75813171 350.34030579 -26.75813171 350.34030579 -27.81547546 349.40132141 C-38.67372058 338.62410798 -39.25641598 325.0974935 -39.38195503 310.64224291 C-39.38736501 307.34148711 -39.3781981 304.0414503 -39.36068976 300.74077964 C-39.34718901 297.15385023 -39.36279757 293.56702203 -39.37451172 289.98010254 C-39.39279673 282.97389628 -39.38443862 275.96797072 -39.3664235 268.96177348 C-39.35234623 263.26521882 -39.34851565 257.56873989 -39.35186577 251.87216949 C-39.35234321 251.05864623 -39.35282065 250.24512296 -39.35331256 249.40694748 C-39.35433898 247.75387852 -39.35539434 246.10080957 -39.35647833 244.44774064 C-39.36502632 229.86368956 -39.34842995 215.27977328 -39.31864929 200.695755 C-39.28979523 186.56516361 -39.28274088 172.43476623 -39.29814148 158.30415344 C-39.31492231 142.88618467 -39.31892033 127.46830779 -39.30143112 112.0503366 C-39.29958687 110.40487783 -39.29775214 108.75941905 -39.29592705 107.11396027 C-39.29501496 106.30452039 -39.29410287 105.49508051 -39.29316314 104.66111214 C-39.28757107 98.97340737 -39.29085228 93.28574767 -39.297472 87.59804535 C-39.3052225 80.66409568 -39.29839039 73.73033659 -39.27329696 66.79642519 C-39.26084399 63.26279821 -39.25460398 59.72946732 -39.26583862 56.19582939 C-39.2778107 52.35767188 -39.25854004 48.52001997 -39.23638916 44.68190002 C-39.24462993 43.57634333 -39.25287069 42.47078663 -39.26136118 41.33172822 C-39.14590058 30.45993219 -35.83907234 20.60625802 -28.72172546 12.26069641 C-23.88238679 7.72160868 -18.95230504 4.49430041 -12.72172546 2.26069641 C-11.80204074 1.91158109 -10.88235601 1.56246576 -9.93480206 1.20277119 C-6.46216752 0.18459396 -3.61422305 0.00639572 0 0 Z " fill="#3ACE02" transform="translate(1302.7217254638672,745.7393035888672)"/>
<path d="M0 0 C0.9075 -0.01611328 1.815 -0.03222656 2.75 -0.04882812 C13.54853341 -0.05660805 21.93633668 4.0567792 29.83203125 11.3515625 C34.73193156 16.49691236 37.47202189 21.57380016 39.625 28.3125 C40.12 29.7975 40.12 29.7975 40.625 31.3125 C40.71437556 32.72956643 40.7487617 34.15048682 40.74804783 35.57036877 C40.75003888 36.44370741 40.75202993 37.31704605 40.75408131 38.21684951 C40.75116847 39.17695711 40.74825563 40.13706471 40.74525452 41.12626648 C40.74610894 42.14563429 40.74696337 43.1650021 40.74784368 44.21525985 C40.74949696 47.64702353 40.74397956 51.07873883 40.73852539 54.51049805 C40.73824346 56.96411132 40.73840137 59.41772467 40.7389679 61.87133789 C40.73919596 67.16205663 40.73635092 72.45276018 40.73073006 77.74347496 C40.72260849 85.39299105 40.71999916 93.04250117 40.71874207 100.69202111 C40.71655258 113.10238268 40.7098953 125.51273769 40.70043945 137.9230957 C40.69126266 149.97973599 40.68418313 162.0363745 40.67993164 174.09301758 C40.67966892 174.83599131 40.67940619 175.57896503 40.67913551 176.34445312 C40.67783049 180.07167495 40.67656677 183.79889679 40.67532361 187.52611864 C40.66495422 218.4549172 40.64726445 249.3837076 40.625 280.3125 C41.19538844 280.30789104 41.76577688 280.30328207 42.35344982 280.29853344 C56.28606109 280.18770802 70.21859425 280.10549644 84.15155315 280.05343914 C90.88969016 280.0277489 97.62753144 279.99277662 104.36547852 279.93530273 C110.87536039 279.88073492 117.38493602 279.85102698 123.89502907 279.83811378 C126.3711917 279.82891838 128.84733872 279.81096239 131.32336998 279.78384972 C159.86721313 279.48389505 159.86721313 279.48389505 172.0625 289.5625 C181.08939863 298.42820401 185.59007081 307.42747035 186.125 320.125 C185.85255106 332.61678404 180.29716964 343.18767929 171.3984375 351.7109375 C161.44319805 360.70135198 149.45444956 360.76075917 136.69555664 360.73242188 C135.11735947 360.73977612 133.53916765 360.74836625 131.96098328 360.75808716 C127.70471803 360.78016637 123.44864714 360.78324082 119.19233251 360.78133965 C115.62644842 360.78121934 112.06060462 360.78980749 108.49473184 360.79811716 C100.07661964 360.8173013 91.65860658 360.82025288 83.24047852 360.81347656 C74.58286153 360.80683531 65.92567052 360.82971494 57.2681399 360.86679029 C49.80874414 360.89756465 42.3494849 360.90883909 34.89002699 360.90495348 C30.44631456 360.90289443 26.00293405 360.90823421 21.5592823 360.93284607 C17.37865936 360.95524002 13.19872598 360.95313158 9.01809883 360.93291855 C7.49280757 360.92953102 5.96746869 360.93449917 4.44224167 360.94890213 C-9.23220073 361.06902304 -19.37603981 358.17031431 -29.3203125 348.49609375 C-37.88839985 339.3904648 -39.97848189 328.82861 -39.8896637 316.68128967 C-39.89660922 315.45529208 -39.90355475 314.22929449 -39.91071075 312.96614546 C-39.92574974 309.59338263 -39.92307949 306.22151088 -39.91255772 302.84878981 C-39.90552803 299.19973812 -39.92159204 295.55077404 -39.93455505 291.90174866 C-39.9561375 284.76503378 -39.95608302 277.62847872 -39.94792951 270.49174196 C-39.94161602 264.68831586 -39.94277888 258.88493618 -39.94920158 253.08151054 C-39.95010324 252.25385724 -39.95100489 251.42620393 -39.95193387 250.57347022 C-39.95378517 248.89181585 -39.95564774 247.2101615 -39.95752143 245.52850717 C-39.97407982 229.7781949 -39.96539738 214.02797235 -39.94853585 198.27766549 C-39.93384047 183.88543862 -39.94846846 169.49342054 -39.97730602 155.10122056 C-40.00673668 140.30214921 -40.01766162 125.50317411 -40.00812382 110.7040748 C-40.00710132 109.02848496 -40.00610671 107.3528951 -40.0051403 105.67730522 C-40.00466391 104.85300555 -40.00418752 104.02870588 -40.0036967 103.17942743 C-40.00153742 97.38752086 -40.01131066 91.59570592 -40.02591133 85.80381966 C-40.043474 78.73876565 -40.04326114 71.67397773 -40.02055968 64.60893399 C-40.00945297 61.00830921 -40.00617278 57.40815252 -40.02486038 53.80754852 C-40.0449047 49.89502166 -40.02580062 45.98321844 -40.00318909 42.07069397 C-40.01502482 40.9458669 -40.02686054 39.82103982 -40.03905493 38.66212708 C-39.90976984 27.60780093 -36.31862282 18.3028094 -28.62109375 10.28515625 C-19.93272063 2.65449812 -11.35966237 -0.03999881 0 0 Z " fill="#3BCE02" transform="translate(573.375,745.6875)"/>
<path d="M0 0 C1.26360352 -0.01740234 1.26360352 -0.01740234 2.55273438 -0.03515625 C13.07931938 0.01346539 21.89372223 3.7702003 30.0625 10.375 C39.35932405 20.37636096 41.52169294 30.46417142 41.45018005 43.77879333 C41.45556559 44.99239141 41.46095113 46.20598949 41.46649987 47.45636326 C41.47827116 50.79897493 41.47673682 54.14108371 41.46933305 57.48367465 C41.46458249 61.09862643 41.4771278 64.71352593 41.48735046 68.32846069 C41.50450661 75.40011794 41.50538516 82.47168621 41.50013756 89.54335885 C41.4960889 95.29341663 41.49754767 101.04344819 41.50288582 106.79350471 C41.50363424 107.61325615 41.50438266 108.43300759 41.50515376 109.27759998 C41.50668531 110.9431506 41.50822366 112.60870122 41.50976873 114.27425183 C41.52348209 129.87715485 41.51806414 145.48000767 41.50658352 161.08290953 C41.49665099 175.34328311 41.5095942 189.60352694 41.53351771 203.86388051 C41.55792555 218.52391457 41.56751253 233.18388825 41.56086498 247.84394222 C41.55737668 256.06747751 41.55957917 264.29091303 41.57711601 272.51443291 C41.59185902 279.51436131 41.59244603 286.51411967 41.5750451 293.51404481 C41.56655016 297.08207804 41.56434825 300.64980777 41.57969666 304.21782494 C41.59616128 308.09344518 41.58135684 311.9686004 41.56370544 315.84422302 C41.57811295 317.51934681 41.57811295 317.51934681 41.59281152 319.22831148 C41.48249909 331.03369752 37.54677706 341.38090263 29.47265625 350.08984375 C19.79066157 359.04284119 9.09282101 360.87820588 -3.6328125 360.6484375 C-14.23245232 360.18073823 -22.56074469 355.14781095 -29.6875 347.49609375 C-35.44930408 340.36586121 -39.05046446 331.48661203 -39.07451439 322.29638004 C-39.07958893 321.26534784 -39.08466347 320.23431564 -39.08989179 319.17204005 C-39.09038955 318.04083827 -39.09088731 316.9096365 -39.09140015 315.74415588 C-39.0957824 314.54117904 -39.10016465 313.3382022 -39.1046797 312.09877151 C-39.11573808 308.75802932 -39.12229022 305.4173339 -39.12686086 302.07658017 C-39.13282275 298.47376825 -39.1444313 294.87097352 -39.15515137 291.26817322 C-39.17966448 282.56522184 -39.19430225 273.86226478 -39.20721143 265.15928951 C-39.21092459 262.69995876 -39.21489773 260.24062858 -39.2189641 257.7812984 C-39.24420518 242.50060797 -39.26625264 227.21991661 -39.27869225 211.93920994 C-39.28162183 208.40030985 -39.2845835 204.86140979 -39.28759766 201.32250977 C-39.28834371 200.44295983 -39.28908976 199.5634099 -39.28985842 198.65720695 C-39.30250233 184.4204246 -39.33571277 170.18376742 -39.37739949 155.94704355 C-39.41987368 141.32110281 -39.44339372 126.69522605 -39.44861281 112.06922382 C-39.45202104 103.86113806 -39.46370634 95.65324778 -39.49671555 87.44522285 C-39.52479292 80.45215634 -39.53568192 73.4593254 -39.52452008 66.46620692 C-39.51935266 62.90193628 -39.52209358 59.33815834 -39.54698563 55.77396011 C-39.57382264 51.89867575 -39.56135221 48.02405326 -39.54550171 44.1486969 C-39.5593838 43.03757162 -39.57326588 41.92644634 -39.58756864 40.7816506 C-39.4767651 29.72951337 -35.94960635 18.31728408 -27.9375 10.375 C-19.15244547 3.06642522 -11.38360204 -0.15605852 0 0 Z " fill="#3ACE02" transform="translate(827.9375,745.625)"/>
<path d="M0 0 C0.66 0.33 1.32 0.66 2 1 C-1.96 4.96 -5.92 8.92 -10 13 C-10 8.83248505 -7.76127698 6.85829482 -5 4 C-3.36927384 2.62294236 -1.7133562 1.27277889 0 0 Z " fill="#59D52A" transform="translate(1281,752)"/>
</svg>
