<svg width="40" height="40" viewBox="0 0 40 40" fill="none" xmlns="http://www.w3.org/2000/svg">
<rect y="0.000488281" width="40" height="40" rx="20" fill="#EFEFEF"/>
<path d="M25 15.0005H22C21.45 15.0005 21 15.4505 21 16.0005C21 16.5505 21.45 17.0005 22 17.0005H25C26.65 17.0005 28 18.3505 28 20.0005C28 21.6505 26.65 23.0005 25 23.0005H22C21.45 23.0005 21 23.4505 21 24.0005C21 24.5505 21.45 25.0005 22 25.0005H25C27.76 25.0005 30 22.7605 30 20.0005C30 17.2405 27.76 15.0005 25 15.0005ZM16 20.0005C16 20.5505 16.45 21.0005 17 21.0005H23C23.55 21.0005 24 20.5505 24 20.0005C24 19.4505 23.55 19.0005 23 19.0005H17C16.45 19.0005 16 19.4505 16 20.0005ZM18 23.0005H15C13.35 23.0005 12 21.6505 12 20.0005C12 18.3505 13.35 17.0005 15 17.0005H18C18.55 17.0005 19 16.5505 19 16.0005C19 15.4505 18.55 15.0005 18 15.0005H15C12.24 15.0005 10 17.2405 10 20.0005C10 22.7605 12.24 25.0005 15 25.0005H18C18.55 25.0005 19 24.5505 19 24.0005C19 23.4505 18.55 23.0005 18 23.0005Z" fill="#151515"/>
</svg>
