<svg width="41" height="40" viewBox="0 0 41 40" fill="none" xmlns="http://www.w3.org/2000/svg">
<rect x="0.666748" y="0.000488281" width="40" height="40" rx="20" fill="url(#paint0_linear_464_29164)"/>
<g clip-path="url(#clip0_464_29164)">
<path d="M9.75024 31.2504L11.8127 26.5004C10.2348 24.2605 9.52858 21.5217 9.82655 18.798C10.1245 16.0744 11.4062 13.5531 13.4311 11.7073C15.456 9.86152 18.0849 8.81816 20.8245 8.77301C23.564 8.72787 26.2259 9.68405 28.3105 11.4621C30.3951 13.2402 31.7592 15.7179 32.1467 18.4302C32.5343 21.1426 31.9186 23.9032 30.4154 26.1939C28.9121 28.4846 26.6245 30.1479 23.982 30.8718C21.3394 31.5956 18.5235 31.3302 16.0627 30.1254L9.75024 31.2504Z" stroke="white" stroke-width="2.33333" stroke-linecap="round" stroke-linejoin="round"/>
<path d="M17.2502 17.5005C17.2502 17.6662 17.3161 17.8252 17.4333 17.9424C17.5505 18.0596 17.7095 18.1255 17.8752 18.1255C18.041 18.1255 18.2 18.0596 18.3172 17.9424C18.4344 17.8252 18.5002 17.6662 18.5002 17.5005V16.2505C18.5002 16.0847 18.4344 15.9258 18.3172 15.8085C18.2 15.6913 18.041 15.6255 17.8752 15.6255C17.7095 15.6255 17.5505 15.6913 17.4333 15.8085C17.3161 15.9258 17.2502 16.0847 17.2502 16.2505V17.5005ZM17.2502 17.5005C17.2502 19.1581 17.9087 20.7478 19.0808 21.9199C20.2529 23.092 21.8426 23.7505 23.5002 23.7505M23.5002 23.7505H24.7502C24.916 23.7505 25.075 23.6846 25.1922 23.5674C25.3094 23.4502 25.3752 23.2912 25.3752 23.1255C25.3752 22.9597 25.3094 22.8008 25.1922 22.6835C25.075 22.5663 24.916 22.5005 24.7502 22.5005H23.5002C23.3345 22.5005 23.1755 22.5663 23.0583 22.6835C22.9411 22.8008 22.8752 22.9597 22.8752 23.1255C22.8752 23.2912 22.9411 23.4502 23.0583 23.5674C23.1755 23.6846 23.3345 23.7505 23.5002 23.7505Z" stroke="white" stroke-width="2.33333" stroke-linecap="round" stroke-linejoin="round"/>
</g>
<defs>
<linearGradient id="paint0_linear_464_29164" x1="20.6667" y1="0.000488281" x2="20.6667" y2="40.0005" gradientUnits="userSpaceOnUse">
<stop stop-color="#43EB61"/>
<stop offset="1" stop-color="#13C83C"/>
</linearGradient>
<clipPath id="clip0_464_29164">
<rect width="30" height="30" fill="white" transform="translate(6.00024 5.00049)"/>
</clipPath>
</defs>
</svg>
