<svg width="319" height="201" viewBox="0 0 319 201" fill="none" xmlns="http://www.w3.org/2000/svg">
<path opacity="0.1" d="M183.155 32.147C164.435 31.5006 146.606 25.4692 129.582 18.8722C112.557 12.2753 95.6944 4.9684 77.4231 1.47368C65.6713 -0.77437 52.2304 -1.0947 42.7636 5.18484C33.6496 11.245 30.7052 21.6773 29.123 31.3649C27.9314 38.6545 27.2314 46.3279 30.494 53.1528C32.7617 57.8913 36.7821 61.8738 39.5646 66.4132C49.2454 82.2043 42.402 101.678 31.9142 117.097C26.9971 124.329 21.2846 131.237 17.4869 138.928C13.6892 146.619 11.9335 155.461 15.2569 163.327C18.5484 171.119 26.3955 176.96 34.8962 181.072C52.1609 189.427 72.4974 191.816 92.3421 193.173C136.257 196.168 180.404 194.872 224.435 193.571C240.731 193.092 257.096 192.604 273.126 190.09C282.028 188.694 291.217 186.477 297.682 181.127C305.885 174.337 307.918 162.84 302.42 154.327C293.199 140.042 267.711 136.495 261.258 121.169C257.712 112.73 261.353 103.334 266.511 95.5108C277.571 78.724 296.109 63.9977 297.083 44.8128C297.754 31.6362 288.843 18.4394 275.063 12.2031C260.622 5.66677 240.592 6.48922 229.942 17.3081C218.965 28.4358 199.685 32.7213 183.155 32.147Z" fill="url(#paint0_linear_1326_56449)"/>
<g filter="url(#filter0_ii_1326_56449)">
<path d="M195.333 41.5H123.667C102.167 41.5 87.8333 52.25 87.8333 77.3333V99.8367C87.8333 105.068 93.2083 108.365 98.0099 106.287C105.893 102.847 114.852 101.557 124.24 103.062C143.017 106.143 158.353 120.978 162.152 139.612C163.227 145.058 163.37 150.362 162.653 155.45C162.08 159.678 165.52 163.405 169.748 163.405H195.333C216.833 163.405 231.167 152.655 231.167 127.572V77.3333C231.167 52.25 216.833 41.5 195.333 41.5ZM198.702 81.5617L176.27 99.4783C171.54 103.277 165.52 105.14 159.5 105.14C153.48 105.14 147.388 103.277 142.73 99.4783L120.298 81.5617C118.005 79.6983 117.647 76.2583 119.438 73.965C121.302 71.6717 124.67 71.2417 126.963 73.105L149.395 91.0217C154.842 95.3933 164.087 95.3933 169.533 91.0217L191.965 73.105C194.258 71.2417 197.698 71.6 199.49 73.965C201.353 76.2583 200.995 79.6983 198.702 81.5617Z" fill="#BD9E72"/>
<path d="M116.5 113.167C96.7022 113.167 80.6667 129.202 80.6667 149C80.6667 155.719 82.548 162.079 85.8626 167.454C92.0438 177.846 103.421 184.833 116.5 184.833C129.579 184.833 140.956 177.846 147.138 167.454C150.452 162.079 152.333 155.719 152.333 149C152.333 129.202 136.298 113.167 116.5 113.167ZM134.148 146.044L115.067 163.692C113.813 164.856 112.11 165.483 110.498 165.483C108.796 165.483 107.094 164.856 105.75 163.513L96.8813 154.644C94.2834 152.046 94.2834 147.746 96.8813 145.148C99.4792 142.55 103.779 142.55 106.377 145.148L110.677 149.448L125.01 136.19C127.698 133.681 131.998 133.86 134.506 136.548C137.015 139.235 136.835 143.535 134.148 146.044Z" fill="#2DD55B"/>
</g>
<defs>
<filter id="filter0_ii_1326_56449" x="80.6667" y="39.5" width="150.5" height="149.333" filterUnits="userSpaceOnUse" color-interpolation-filters="sRGB">
<feFlood flood-opacity="0" result="BackgroundImageFix"/>
<feBlend mode="normal" in="SourceGraphic" in2="BackgroundImageFix" result="shape"/>
<feColorMatrix in="SourceAlpha" type="matrix" values="0 0 0 0 0 0 0 0 0 0 0 0 0 0 0 0 0 0 127 0" result="hardAlpha"/>
<feOffset dy="-2"/>
<feGaussianBlur stdDeviation="2"/>
<feComposite in2="hardAlpha" operator="arithmetic" k2="-1" k3="1"/>
<feColorMatrix type="matrix" values="0 0 0 0 0 0 0 0 0 0 0 0 0 0 0 0 0 0 0.25 0"/>
<feBlend mode="normal" in2="shape" result="effect1_innerShadow_1326_56449"/>
<feColorMatrix in="SourceAlpha" type="matrix" values="0 0 0 0 0 0 0 0 0 0 0 0 0 0 0 0 0 0 127 0" result="hardAlpha"/>
<feOffset dy="4"/>
<feGaussianBlur stdDeviation="2"/>
<feComposite in2="hardAlpha" operator="arithmetic" k2="-1" k3="1"/>
<feColorMatrix type="matrix" values="0 0 0 0 1 0 0 0 0 1 0 0 0 0 1 0 0 0 0.25 0"/>
<feBlend mode="normal" in2="effect1_innerShadow_1326_56449" result="effect2_innerShadow_1326_56449"/>
</filter>
<linearGradient id="paint0_linear_1326_56449" x1="13.5" y1="97.5" x2="305.5" y2="97.5" gradientUnits="userSpaceOnUse">
<stop stop-color="#BD9E72"/>
<stop offset="1" stop-color="#A07C4B"/>
</linearGradient>
</defs>
</svg>
