<svg width="319" height="201" viewBox="0 0 319 201" fill="none" xmlns="http://www.w3.org/2000/svg">
<path opacity="0.1" d="M183.155 32.147C164.435 31.5006 146.606 25.4692 129.582 18.8722C112.557 12.2753 95.6944 4.9684 77.4231 1.47368C65.6713 -0.77437 52.2304 -1.0947 42.7636 5.18484C33.6496 11.245 30.7052 21.6773 29.123 31.3649C27.9314 38.6545 27.2314 46.3279 30.494 53.1528C32.7617 57.8913 36.7821 61.8738 39.5646 66.4132C49.2454 82.2043 42.402 101.678 31.9142 117.097C26.9971 124.329 21.2846 131.237 17.4869 138.928C13.6892 146.619 11.9335 155.461 15.2569 163.327C18.5484 171.119 26.3955 176.96 34.8962 181.072C52.1609 189.427 72.4974 191.816 92.3421 193.173C136.257 196.168 180.404 194.872 224.435 193.571C240.731 193.092 257.096 192.604 273.126 190.09C282.028 188.694 291.217 186.477 297.682 181.127C305.885 174.337 307.918 162.84 302.42 154.327C293.199 140.042 267.711 136.495 261.258 121.169C257.712 112.73 261.353 103.334 266.511 95.5108C277.571 78.724 296.109 63.9977 297.083 44.8128C297.754 31.6362 288.843 18.4394 275.063 12.2031C260.622 5.66677 240.592 6.48922 229.942 17.3081C218.965 28.4358 199.685 32.7213 183.155 32.147Z" fill="url(#paint0_linear_1332_59616)"/>
<g filter="url(#filter0_ii_1332_59616)">
<circle cx="159.5" cy="101" r="46" fill="white"/>
<g filter="url(#filter1_ii_1332_59616)">
<path d="M148.023 34.4444C188.996 27.6944 224.568 57.8668 226.863 97.0166C227.418 106.473 225.871 115.656 222.647 124.115C221.775 124.04 220.892 124 220 124C203.149 124 189.5 137.649 189.5 154.5C189.5 156.651 189.726 158.758 190.159 160.794C180.898 165.696 170.435 168.499 159.431 168.499C146.943 168.499 135.266 165.124 125.276 159.252L103.27 165.327C98.2756 166.744 93.6187 162.154 94.9687 157.092L100.976 134.749C93.619 121.992 90.2435 106.534 92.8085 90.1993C97.196 61.9843 119.808 39.1019 148.023 34.4444ZM137.966 67.1143C135.468 67.1143 133.106 68.1272 130.946 70.2871C129.124 71.9746 127.841 73.8646 127.031 75.9571C126.221 77.9819 125.816 80.2091 125.816 82.5039C125.816 86.0139 126.626 89.7268 128.246 93.5743C129.866 97.4218 132.094 101.27 134.861 105.117C137.696 108.964 140.801 112.677 144.31 116.187C147.82 119.629 151.466 122.802 155.381 125.637C159.228 128.404 163.076 130.632 166.991 132.319C170.838 134.007 174.551 134.816 177.993 134.816C180.356 134.816 182.583 134.412 184.608 133.534C186.633 132.724 188.456 131.374 190.143 129.552C191.088 128.472 191.831 127.324 192.438 126.109C192.978 124.894 193.248 123.611 193.653 122.464C193.653 121.519 193.451 120.709 193.113 119.832C192.708 119.022 192.101 118.279 191.224 117.672L180.018 109.707C179.208 109.1 178.399 108.694 177.656 108.356C176.914 108.019 176.238 107.884 175.563 107.884C174.686 107.884 173.944 108.155 173.134 108.627C172.391 109.032 171.581 109.639 170.703 110.517L168.139 113.082C167.734 113.487 167.328 113.689 166.721 113.689C166.383 113.689 166.113 113.689 165.844 113.555C165.641 113.487 165.439 113.352 165.236 113.284C164.089 112.677 162.603 111.665 160.849 110.18C159.026 108.627 157.271 107.007 155.448 105.185C153.693 103.43 152.073 101.607 150.52 99.8516C149.036 98.0969 147.956 96.6796 147.349 95.5323C147.281 95.3298 147.213 95.1265 147.078 94.8565C147.011 94.5866 146.943 94.3168 146.943 94.0469C146.943 93.5069 147.078 93.1013 147.483 92.6963L150.049 89.9971C150.859 89.1871 151.466 88.3764 151.938 87.5664C152.411 86.7565 152.681 85.9466 152.681 85.1368C152.681 84.4618 152.545 83.7865 152.208 83.044C151.938 82.3016 151.466 81.559 150.858 80.6817L143.028 69.6123C142.421 68.7348 141.611 68.1267 140.733 67.7217C139.856 67.3167 138.911 67.1143 137.966 67.1143Z" fill="#2DD55B"/>
</g>
<path d="M220 132C207.569 132 197.5 142.069 197.5 154.5C197.5 158.719 198.681 162.712 200.763 166.087C204.644 172.612 211.787 177 220 177C228.212 177 235.356 172.612 239.237 166.087C241.319 162.712 242.5 158.719 242.5 154.5C242.5 142.069 232.431 132 220 132ZM231.081 152.644L219.1 163.725C218.312 164.456 217.244 164.85 216.231 164.85C215.163 164.85 214.094 164.456 213.25 163.613L207.681 158.044C206.05 156.412 206.05 153.712 207.681 152.081C209.312 150.45 212.012 150.45 213.644 152.081L216.344 154.781L225.344 146.456C227.031 144.881 229.731 144.994 231.306 146.681C232.881 148.369 232.769 151.069 231.081 152.644Z" fill="#2DD55B"/>
</g>
<defs>
<filter id="filter0_ii_1332_59616" x="78.5" y="18" width="164" height="168" filterUnits="userSpaceOnUse" color-interpolation-filters="sRGB">
<feFlood flood-opacity="0" result="BackgroundImageFix"/>
<feBlend mode="normal" in="SourceGraphic" in2="BackgroundImageFix" result="shape"/>
<feColorMatrix in="SourceAlpha" type="matrix" values="0 0 0 0 0 0 0 0 0 0 0 0 0 0 0 0 0 0 127 0" result="hardAlpha"/>
<feOffset dy="-2"/>
<feGaussianBlur stdDeviation="2"/>
<feComposite in2="hardAlpha" operator="arithmetic" k2="-1" k3="1"/>
<feColorMatrix type="matrix" values="0 0 0 0 0 0 0 0 0 0 0 0 0 0 0 0 0 0 0.25 0"/>
<feBlend mode="normal" in2="shape" result="effect1_innerShadow_1332_59616"/>
<feColorMatrix in="SourceAlpha" type="matrix" values="0 0 0 0 0 0 0 0 0 0 0 0 0 0 0 0 0 0 127 0" result="hardAlpha"/>
<feOffset dy="4"/>
<feGaussianBlur stdDeviation="2"/>
<feComposite in2="hardAlpha" operator="arithmetic" k2="-1" k3="1"/>
<feColorMatrix type="matrix" values="0 0 0 0 1 0 0 0 0 1 0 0 0 0 1 0 0 0 0.25 0"/>
<feBlend mode="normal" in2="effect1_innerShadow_1332_59616" result="effect2_innerShadow_1332_59616"/>
</filter>
<filter id="filter1_ii_1332_59616" x="91.957" y="31.4963" width="135.017" height="141.003" filterUnits="userSpaceOnUse" color-interpolation-filters="sRGB">
<feFlood flood-opacity="0" result="BackgroundImageFix"/>
<feBlend mode="normal" in="SourceGraphic" in2="BackgroundImageFix" result="shape"/>
<feColorMatrix in="SourceAlpha" type="matrix" values="0 0 0 0 0 0 0 0 0 0 0 0 0 0 0 0 0 0 127 0" result="hardAlpha"/>
<feOffset dy="-2"/>
<feGaussianBlur stdDeviation="2"/>
<feComposite in2="hardAlpha" operator="arithmetic" k2="-1" k3="1"/>
<feColorMatrix type="matrix" values="0 0 0 0 0 0 0 0 0 0 0 0 0 0 0 0 0 0 0.25 0"/>
<feBlend mode="normal" in2="shape" result="effect1_innerShadow_1332_59616"/>
<feColorMatrix in="SourceAlpha" type="matrix" values="0 0 0 0 0 0 0 0 0 0 0 0 0 0 0 0 0 0 127 0" result="hardAlpha"/>
<feOffset dy="4"/>
<feGaussianBlur stdDeviation="2"/>
<feComposite in2="hardAlpha" operator="arithmetic" k2="-1" k3="1"/>
<feColorMatrix type="matrix" values="0 0 0 0 1 0 0 0 0 1 0 0 0 0 1 0 0 0 0.25 0"/>
<feBlend mode="normal" in2="effect1_innerShadow_1332_59616" result="effect2_innerShadow_1332_59616"/>
</filter>
<linearGradient id="paint0_linear_1332_59616" x1="13.5" y1="97.5" x2="305.5" y2="97.5" gradientUnits="userSpaceOnUse">
<stop stop-color="#BD9E72"/>
<stop offset="1" stop-color="#A07C4B"/>
</linearGradient>
</defs>
</svg>
