<svg width="311" height="50" viewBox="0 0 311 50" fill="none" xmlns="http://www.w3.org/2000/svg">
<g clip-path="url(#clip0_18_9830)">
<path d="M43.7034 46.551L43.665 19.2788L48.3784 14.1946H59.0908L59.198 21.794H52.342V26.6643L58.4262 26.554V33.5648L52.342 33.675V39.4548L44.7924 46.551H43.7034Z" fill="white"/>
<path d="M48.6904 2.96466L54.1094 8.68304L48.656 14.1381L43.0444 8.61213L48.6904 2.96466Z" fill="white"/>
<path opacity="0.977499" d="M18.6597 25.3477C18.6597 25.3477 13.7939 19.0251 11.5336 22.8258C9.27326 26.6266 19.654 27.3851 19.5825 36.5966C19.5093 46.0233 10.2656 49.1006 2.49236 45.6854C2.38211 40.8381 2.49236 35.5501 2.49236 35.5501C2.49236 35.5501 8.61171 41.3889 10.2656 38.084C12.0065 34.605 5.41422 33.6222 3.76034 29.2155C8.33607 24.5334 18.4895 14.6639 18.4895 14.6639L18.6597 25.3477Z" fill="white"/>
<path d="M18.3823 46.6797L26.2026 14.3552H37.237L40.4589 30.5585L43.7031 46.5259L34.7193 46.6797L33.9159 42.6659L28.0774 42.5588L33.0589 37.1002L31.3449 22.4899L27.4347 46.6797H18.3823Z" fill="white"/>
<path d="M86.3591 14.3082C76.8173 14.3082 69.0972 21.5466 69.0972 30.4786C69.0972 39.4104 76.8173 46.6488 86.3591 46.6488C95.9011 46.6488 103.643 39.4104 103.643 30.4786C103.643 21.5466 95.9011 14.3082 86.3591 14.3082ZM86.201 22.9313C91.1572 22.9313 93.5825 25.7315 93.5825 30.5445C93.5825 35.3575 91.0734 38.0123 86.1172 38.0123C81.161 38.0123 78.6521 35.1066 78.6519 30.2935C78.6519 25.4805 81.2446 22.9313 86.201 22.9313Z" fill="white"/>
<path d="M107.337 15.0552V46.1435H116.221V38.1023H120.927L125.963 46.1435L136.188 46.0556L129.547 36.4984C129.547 36.4984 135.026 34.5096 135.001 26.6995C134.967 16.1093 125.611 15.0552 125.611 15.0552H107.337ZM123.236 21.8002C123.236 21.8002 126.882 21.7142 127.084 26.3042C127.286 30.894 123.544 31.2475 123.544 31.2475L115.474 31.0717L115.364 21.8881L123.236 21.8002Z" fill="white"/>
<path d="M139.053 15.4421H149.013V46.5517H139.053V15.4421Z" fill="white"/>
<path d="M186.85 15.4421H196.809V46.5517H186.85V15.4421Z" fill="white"/>
<path d="M177.63 26.101C179.948 24.4239 182.906 20.4309 182.906 20.4309C182.906 20.4309 179.548 14.2018 169.158 14.1219C159.006 14.0439 153.252 21.3094 153.172 30.9726C153.123 36.8869 155.649 46.5454 169.158 47.0247C176.434 47.2828 182.426 42.792 182.426 42.792V29.6949H174.673L174.513 37.8407C174.513 37.8407 161.884 41.035 161.884 30.5733C161.884 22.9864 171.636 20.1115 177.63 26.101Z" fill="white"/>
<path d="M202.199 46.7416H211.269V30.7759L224.227 46.7416H231.423V15.2417H222.499V31.0636L210.406 15.2417H202.056L202.199 46.7416Z" fill="white"/>
<path d="M247.413 14.8135L237.232 38.6516L233.734 46.7367H242.794L245.235 40.2773H257.924L260.211 46.7367H269.425L256.032 14.8135H247.413ZM251.436 23.8653L256.186 34.2355H246.687L251.436 23.8653Z" fill="white"/>
<path d="M271.013 14.5225V46.1663L294.767 46.454V37.8239H281.235V14.5225H271.013Z" fill="white"/>
<path d="M299.5 15H306V20H299.5V26.5H294.5V20H288V15H294.5V8.5H299.5V15Z" fill="white"/>
</g>
<defs>
<clipPath id="clip0_18_9830">
<rect width="311" height="50" fill="white"/>
</clipPath>
</defs>
</svg>
