<svg width="24" height="24" viewBox="0 0 24 24" fill="none" xmlns="http://www.w3.org/2000/svg">
<path fill-rule="evenodd" clip-rule="evenodd" d="M8.81802 2.06802C9.66193 1.22411 10.8065 0.75 12 0.75C13.1935 0.75 14.3381 1.22411 15.182 2.06802C16.0259 2.91193 16.5 4.05653 16.5 5.25C16.5 5.66421 16.1642 6 15.75 6C15.3358 6 15 5.66421 15 5.25C15 4.45435 14.6839 3.69129 14.1213 3.12868C13.5587 2.56607 12.7956 2.25 12 2.25C11.2044 2.25 10.4413 2.56607 9.87868 3.12868C9.31607 3.69129 9 4.45435 9 5.25V9H17.25C18.9069 9 20.25 10.3431 20.25 12V20.25C20.25 21.9069 18.9069 23.25 17.25 23.25H6.75C5.09315 23.25 3.75 21.9069 3.75 20.25V12C3.75 10.3431 5.09315 9 6.75 9H7.5V5.25C7.5 4.05653 7.97411 2.91193 8.81802 2.06802ZM6.75 10.5C5.92157 10.5 5.25 11.1716 5.25 12V20.25C5.25 21.0784 5.92157 21.75 6.75 21.75H17.25C18.0784 21.75 18.75 21.0784 18.75 20.25V12C18.75 11.1716 18.0784 10.5 17.25 10.5H6.75Z" fill="#94A3B8"/>
</svg>
