<svg width="24" height="24" viewBox="0 0 24 24" fill="none" xmlns="http://www.w3.org/2000/svg">
<path d="M21.4073 19.7515L16.9969 15.341C18.0587 13.9274 18.6319 12.2068 18.63 10.4388C18.63 5.92287 14.9559 2.24881 10.44 2.24881C5.92406 2.24881 2.25 5.92287 2.25 10.4388C2.25 14.9548 5.92406 18.6288 10.44 18.6288C12.208 18.6307 13.9286 18.0575 15.3422 16.9957L19.7527 21.4062C19.9759 21.6057 20.2671 21.7123 20.5664 21.7039C20.8658 21.6955 21.1506 21.5729 21.3623 21.3611C21.574 21.1494 21.6967 20.8646 21.7051 20.5653C21.7135 20.2659 21.6069 19.9747 21.4073 19.7515ZM4.59 10.4388C4.59 9.28179 4.9331 8.15075 5.5759 7.18873C6.21871 6.2267 7.13236 5.47689 8.2013 5.03412C9.27025 4.59134 10.4465 4.47549 11.5813 4.70122C12.7161 4.92694 13.7584 5.4841 14.5766 6.30224C15.3947 7.12037 15.9519 8.16274 16.1776 9.29753C16.4033 10.4323 16.2875 11.6086 15.8447 12.6775C15.4019 13.7465 14.6521 14.6601 13.6901 15.3029C12.7281 15.9457 11.597 16.2888 10.44 16.2888C8.88906 16.287 7.40217 15.67 6.30548 14.5733C5.2088 13.4766 4.59186 11.9898 4.59 10.4388Z" fill="#627086"/>
</svg>
