<svg width="24" height="24" viewBox="0 0 24 24" fill="none" xmlns="http://www.w3.org/2000/svg">
<path d="M22.5 5.49999C22.5 4.70434 22.1839 3.94128 21.6213 3.37867C21.0587 2.81606 20.2956 2.49999 19.5 2.49999H18.75V1.77109C18.75 1.36749 18.4397 1.02109 18.0361 1.00093C17.9347 0.996044 17.8333 1.0118 17.7382 1.04724C17.6431 1.08267 17.5561 1.13706 17.4826 1.2071C17.4091 1.27713 17.3506 1.36136 17.3106 1.45468C17.2706 1.548 17.25 1.64847 17.25 1.74999V2.49999H6.75V1.77109C6.75 1.36749 6.43969 1.02109 6.03609 1.00093C5.93469 0.996044 5.83334 1.0118 5.7382 1.04724C5.64307 1.08267 5.55611 1.13706 5.48261 1.2071C5.40911 1.27713 5.3506 1.36136 5.31062 1.45468C5.27063 1.548 5.25001 1.64847 5.25 1.74999V2.49999H4.5C3.70435 2.49999 2.94129 2.81606 2.37868 3.37867C1.81607 3.94128 1.5 4.70434 1.5 5.49999V6.06249C1.5 6.11222 1.51975 6.15991 1.55492 6.19508C1.59008 6.23024 1.63777 6.24999 1.6875 6.24999H22.3125C22.3622 6.24999 22.4099 6.23024 22.4451 6.19508C22.4802 6.15991 22.5 6.11222 22.5 6.06249V5.49999ZM1.5 19C1.5 19.7956 1.81607 20.5587 2.37868 21.1213C2.94129 21.6839 3.70435 22 4.5 22H19.5C20.2956 22 21.0587 21.6839 21.6213 21.1213C22.1839 20.5587 22.5 19.7956 22.5 19V7.89062C22.5 7.85332 22.4852 7.81755 22.4588 7.79118C22.4324 7.76481 22.3967 7.74999 22.3594 7.74999H1.64062C1.60333 7.74999 1.56756 7.76481 1.54119 7.79118C1.51482 7.81755 1.5 7.85332 1.5 7.89062V19ZM17.625 9.24999C17.8475 9.24999 18.065 9.31597 18.25 9.43959C18.435 9.5632 18.5792 9.73891 18.6644 9.94447C18.7495 10.15 18.7718 10.3762 18.7284 10.5945C18.685 10.8127 18.5778 11.0132 18.4205 11.1705C18.2632 11.3278 18.0627 11.435 17.8445 11.4784C17.6262 11.5218 17.4 11.4995 17.1945 11.4144C16.9889 11.3292 16.8132 11.185 16.6896 11C16.566 10.815 16.5 10.5975 16.5 10.375C16.5 10.0766 16.6185 9.79047 16.8295 9.5795C17.0405 9.36852 17.3266 9.24999 17.625 9.24999ZM17.625 13C17.8475 13 18.065 13.066 18.25 13.1896C18.435 13.3132 18.5792 13.4889 18.6644 13.6945C18.7495 13.9 18.7718 14.1262 18.7284 14.3445C18.685 14.5627 18.5778 14.7632 18.4205 14.9205C18.2632 15.0778 18.0627 15.185 17.8445 15.2284C17.6262 15.2718 17.4 15.2495 17.1945 15.1644C16.9889 15.0792 16.8132 14.935 16.6896 14.75C16.566 14.565 16.5 14.3475 16.5 14.125C16.5 13.8266 16.6185 13.5405 16.8295 13.3295C17.0405 13.1185 17.3266 13 17.625 13ZM13.875 9.24999C14.0975 9.24999 14.315 9.31597 14.5 9.43959C14.685 9.5632 14.8292 9.73891 14.9144 9.94447C14.9995 10.15 15.0218 10.3762 14.9784 10.5945C14.935 10.8127 14.8278 11.0132 14.6705 11.1705C14.5132 11.3278 14.3127 11.435 14.0945 11.4784C13.8762 11.5218 13.65 11.4995 13.4445 11.4144C13.2389 11.3292 13.0632 11.185 12.9396 11C12.816 10.815 12.75 10.5975 12.75 10.375C12.75 10.0766 12.8685 9.79047 13.0795 9.5795C13.2905 9.36852 13.5766 9.24999 13.875 9.24999ZM13.875 13C14.0975 13 14.315 13.066 14.5 13.1896C14.685 13.3132 14.8292 13.4889 14.9144 13.6945C14.9995 13.9 15.0218 14.1262 14.9784 14.3445C14.935 14.5627 14.8278 14.7632 14.6705 14.9205C14.5132 15.0778 14.3127 15.185 14.0945 15.2284C13.8762 15.2718 13.65 15.2495 13.4445 15.1644C13.2389 15.0792 13.0632 14.935 12.9396 14.75C12.816 14.565 12.75 14.3475 12.75 14.125C12.75 13.8266 12.8685 13.5405 13.0795 13.3295C13.2905 13.1185 13.5766 13 13.875 13ZM13.875 16.75C14.0975 16.75 14.315 16.816 14.5 16.9396C14.685 17.0632 14.8292 17.2389 14.9144 17.4445C14.9995 17.65 15.0218 17.8762 14.9784 18.0945C14.935 18.3127 14.8278 18.5132 14.6705 18.6705C14.5132 18.8278 14.3127 18.935 14.0945 18.9784C13.8762 19.0218 13.65 18.9995 13.4445 18.9144C13.2389 18.8292 13.0632 18.685 12.9396 18.5C12.816 18.315 12.75 18.0975 12.75 17.875C12.75 17.5766 12.8685 17.2905 13.0795 17.0795C13.2905 16.8685 13.5766 16.75 13.875 16.75ZM10.125 13C10.3475 13 10.565 13.066 10.75 13.1896C10.935 13.3132 11.0792 13.4889 11.1644 13.6945C11.2495 13.9 11.2718 14.1262 11.2284 14.3445C11.185 14.5627 11.0778 14.7632 10.9205 14.9205C10.7632 15.0778 10.5627 15.185 10.3445 15.2284C10.1262 15.2718 9.90005 15.2495 9.69448 15.1644C9.48891 15.0792 9.31321 14.935 9.1896 14.75C9.06598 14.565 9 14.3475 9 14.125C9 13.8266 9.11853 13.5405 9.3295 13.3295C9.54048 13.1185 9.82663 13 10.125 13ZM10.125 16.75C10.3475 16.75 10.565 16.816 10.75 16.9396C10.935 17.0632 11.0792 17.2389 11.1644 17.4445C11.2495 17.65 11.2718 17.8762 11.2284 18.0945C11.185 18.3127 11.0778 18.5132 10.9205 18.6705C10.7632 18.8278 10.5627 18.935 10.3445 18.9784C10.1262 19.0218 9.90005 18.9995 9.69448 18.9144C9.48891 18.8292 9.31321 18.685 9.1896 18.5C9.06598 18.315 9 18.0975 9 17.875C9 17.5766 9.11853 17.2905 9.3295 17.0795C9.54048 16.8685 9.82663 16.75 10.125 16.75ZM6.375 13C6.5975 13 6.81501 13.066 7.00002 13.1896C7.18502 13.3132 7.32922 13.4889 7.41436 13.6945C7.49951 13.9 7.52179 14.1262 7.47838 14.3445C7.43498 14.5627 7.32783 14.7632 7.1705 14.9205C7.01316 15.0778 6.81271 15.185 6.59448 15.2284C6.37625 15.2718 6.15005 15.2495 5.94448 15.1644C5.73891 15.0792 5.56321 14.935 5.4396 14.75C5.31598 14.565 5.25 14.3475 5.25 14.125C5.25 13.8266 5.36853 13.5405 5.5795 13.3295C5.79048 13.1185 6.07663 13 6.375 13ZM6.375 16.75C6.5975 16.75 6.81501 16.816 7.00002 16.9396C7.18502 17.0632 7.32922 17.2389 7.41436 17.4445C7.49951 17.65 7.52179 17.8762 7.47838 18.0945C7.43498 18.3127 7.32783 18.5132 7.1705 18.6705C7.01316 18.8278 6.81271 18.935 6.59448 18.9784C6.37625 19.0218 6.15005 18.9995 5.94448 18.9144C5.73891 18.8292 5.56321 18.685 5.4396 18.5C5.31598 18.315 5.25 18.0975 5.25 17.875C5.25 17.5766 5.36853 17.2905 5.5795 17.0795C5.79048 16.8685 6.07663 16.75 6.375 16.75Z" fill="#A07C4B"/>
</svg>
