<svg width="24" height="24" viewBox="0 0 24 24" fill="none" xmlns="http://www.w3.org/2000/svg">
<path d="M12.2604 4.74751C12.1906 4.68075 12.0978 4.64349 12.0012 4.64349C11.9046 4.64349 11.8118 4.68075 11.742 4.74751L3.1123 12.9914C3.07566 13.0265 3.0465 13.0686 3.0266 13.1153C3.0067 13.1619 2.99647 13.2121 2.99652 13.2628L2.99512 21C2.99512 21.3978 3.15315 21.7794 3.43446 22.0607C3.71576 22.342 4.09729 22.5 4.49512 22.5H8.9998C9.19872 22.5 9.38948 22.421 9.53013 22.2803C9.67079 22.1397 9.7498 21.9489 9.7498 21.75V15.375C9.7498 15.2756 9.78931 15.1802 9.85964 15.1098C9.92997 15.0395 10.0253 15 10.1248 15H13.8748C13.9743 15 14.0696 15.0395 14.14 15.1098C14.2103 15.1802 14.2498 15.2756 14.2498 15.375V21.75C14.2498 21.9489 14.3288 22.1397 14.4695 22.2803C14.6101 22.421 14.8009 22.5 14.9998 22.5H19.5026C19.9004 22.5 20.282 22.342 20.5633 22.0607C20.8446 21.7794 21.0026 21.3978 21.0026 21V13.2628C21.0027 13.2121 20.9924 13.1619 20.9725 13.1153C20.9526 13.0686 20.9235 13.0265 20.8868 12.9914L12.2604 4.74751Z" fill="#A07C4B"/>
<path d="M19.5052 8.09016L23.0114 11.4445C23.311 11.7309 23.3349 12.2231 23.0471 12.5212C22.9092 12.6641 22.7204 12.7465 22.5219 12.7504C22.3234 12.7543 22.1314 12.6793 21.9881 12.5419L12.2606 3.2475C12.1909 3.18074 12.098 3.14348 12.0014 3.14348C11.9048 3.14348 11.812 3.18074 11.7422 3.2475L2.01564 12.5419C1.94228 12.6124 1.85533 12.6672 1.7601 12.7031C1.66487 12.7389 1.56334 12.755 1.46169 12.7503C1.36005 12.7457 1.26041 12.7204 1.16885 12.676C1.07728 12.6316 0.995704 12.5691 0.92908 12.4922C0.663768 12.1875 0.70033 11.7248 0.991893 11.4436L10.9622 1.90453C11.2163 1.64719 11.5931 1.5 12 1.5C12.4083 1.5 12.7861 1.64719 13.0402 1.90406L15.7552 4.5L19.5052 8.09016Z" fill="#A07C4B"/>
</svg>
