<svg width="24" height="24" viewBox="0 0 24 24" fill="none" xmlns="http://www.w3.org/2000/svg">
<path d="M12.1359 2.24999C6.65243 2.17593 2.17587 6.65249 2.24993 12.1359C2.32305 17.3948 6.60509 21.6769 11.864 21.75C17.3484 21.825 21.824 17.3484 21.749 11.865C21.6768 6.60515 17.3948 2.32312 12.1359 2.24999ZM18.0618 17.5898C18.0431 17.61 18.0202 17.6259 17.9948 17.6362C17.9693 17.6466 17.9418 17.6512 17.9144 17.6498C17.8869 17.6483 17.8601 17.6409 17.8358 17.6279C17.8116 17.615 17.7905 17.5969 17.774 17.5748C17.3547 17.0263 16.8413 16.5566 16.2576 16.1878C15.0641 15.4219 13.552 15 11.9999 15C10.4479 15 8.93571 15.4219 7.74227 16.1878C7.15862 16.5565 6.64516 17.026 6.22587 17.5744C6.20939 17.5964 6.18828 17.6145 6.16402 17.6275C6.13976 17.6404 6.11294 17.6479 6.08548 17.6493C6.05801 17.6507 6.03057 17.6461 6.00509 17.6358C5.97961 17.6254 5.95673 17.6096 5.93805 17.5894C4.56259 16.1045 3.78344 14.1643 3.74993 12.1406C3.67352 7.57921 7.41649 3.76124 11.9798 3.74999C16.5431 3.73874 20.2499 7.44421 20.2499 12C20.2515 14.0725 19.4699 16.0691 18.0618 17.5898Z" fill="#94A3B8"/>
<path d="M12 6.75C11.0756 6.75 10.2398 7.09641 9.6459 7.72594C9.05199 8.35547 8.75527 9.22594 8.82231 10.1602C8.95824 12 10.3837 13.5 12 13.5C13.6162 13.5 15.0389 12 15.1776 10.1606C15.247 9.23531 14.9526 8.37281 14.3489 7.73156C13.7526 7.09875 12.9182 6.75 12 6.75Z" fill="#94A3B8"/>
</svg>
