<svg width="24" height="24" viewBox="0 0 24 24" fill="none" xmlns="http://www.w3.org/2000/svg">
<path d="M11.9995 1.2002C14.6505 1.2002 16.8003 3.34903 16.8003 6V7.2002H18.3999C19.4892 7.2002 20.3973 8.03297 20.4917 9.11816L21.4839 20.5186C21.5903 21.7453 20.6225 22.7998 19.3911 22.7998H4.60889C3.37753 22.7997 2.41068 21.7453 2.51709 20.5186L3.5083 9.11816C3.60266 8.03306 4.51092 7.20033 5.6001 7.2002H7.19971V6C7.19971 3.34917 9.34873 1.20041 11.9995 1.2002ZM15.8999 8C15.4858 8.00011 15.1499 8.33585 15.1499 8.75V10C15.1499 11.2584 13.8737 12.4997 12.0005 12.5C10.1269 12.5 8.8501 11.2585 8.8501 10V8.75C8.8501 8.33585 8.51422 8.0001 8.1001 8C7.68588 8 7.3501 8.33579 7.3501 8.75V10C7.3501 12.3314 9.56621 14 12.0005 14C14.4345 13.9997 16.6499 12.3312 16.6499 10V8.75C16.6499 8.33585 16.314 8.0001 15.8999 8ZM11.9995 3C10.3428 3.00021 8.99951 4.34328 8.99951 6V7.2002H14.9995V6C14.9995 4.34315 13.6564 3 11.9995 3Z" fill="#A07C4B"/>
</svg>
