<svg width="24" height="24" viewBox="0 0 24 24" fill="none" xmlns="http://www.w3.org/2000/svg">
<g clip-path="url(#clip0_10_92)">
<path d="M19.2937 12.0016C19.2938 11.45 19.5021 10.9188 19.877 10.5142C20.2518 10.1096 20.7656 9.86143 21.3156 9.8193C21.3612 9.81568 21.4038 9.79495 21.4348 9.76127C21.4657 9.72758 21.4828 9.68343 21.4826 9.63766L21.4843 5.75057C21.4843 5.70223 21.4651 5.65586 21.4309 5.62168C21.3967 5.58749 21.3503 5.56828 21.302 5.56827L16.6391 5.56827C16.467 5.56825 16.2974 5.60831 16.1435 5.68528C15.9896 5.76265 15.8197 5.80309 15.6474 5.80338C15.4751 5.80366 15.305 5.7638 15.1508 5.68693C14.9969 5.60993 14.8271 5.56976 14.655 5.5696L2.69801 5.56827C2.64966 5.56828 2.6033 5.58749 2.56912 5.62168C2.53493 5.65586 2.51572 5.70223 2.51571 5.75057L2.51571 9.63601C2.51551 9.68177 2.53261 9.72592 2.56359 9.75961C2.59457 9.79329 2.63714 9.81402 2.68276 9.81764C3.23294 9.85943 3.74703 10.1075 4.12211 10.5121C4.4972 10.9168 4.70561 11.4482 4.70561 12C4.70561 12.5517 4.4972 13.0831 4.12211 13.4878C3.74703 13.8924 3.23294 14.1405 2.68276 14.1823C2.63714 14.1859 2.59457 14.2066 2.56359 14.2403C2.53261 14.274 2.51551 14.3181 2.51571 14.3639V18.2493C2.51572 18.2977 2.53493 18.344 2.56912 18.3782C2.6033 18.4124 2.64966 18.4316 2.69801 18.4316L14.6566 18.432C14.8288 18.4318 14.9985 18.3916 15.1525 18.3146C15.3064 18.2373 15.4763 18.1968 15.6486 18.1965C15.821 18.1962 15.991 18.2361 16.1452 18.313C16.299 18.3899 16.4687 18.43 16.6407 18.43L21.3036 18.43C21.352 18.43 21.3984 18.4108 21.4325 18.3766C21.4667 18.3424 21.4859 18.296 21.4859 18.2477L21.4859 14.3622C21.4862 14.3165 21.469 14.2723 21.4381 14.2386C21.4071 14.205 21.3645 14.1842 21.3189 14.1806C20.7689 14.1393 20.2548 13.892 19.8793 13.488C19.5038 13.084 19.2947 12.5531 19.2937 12.0016Z" stroke="#94A3B8" stroke-width="1.5" stroke-miterlimit="10"/>
<path d="M15.6479 7.98741L15.6479 6.89294M15.6479 10.9056L15.6476 10.176M15.6476 13.824L15.6479 13.0945M15.6479 17.1071V16.0126" stroke="#94A3B8" stroke-width="1.5" stroke-miterlimit="10" stroke-linecap="round"/>
<path d="M9.60018 15.36L7.68018 15.36" stroke="#94A3B8" stroke-width="2" stroke-miterlimit="10" stroke-linecap="round"/>
<path d="M11.5202 12.48L7.68018 12.48" stroke="#94A3B8" stroke-width="2" stroke-miterlimit="10" stroke-linecap="round"/>
</g>
<defs>
<clipPath id="clip0_10_92">
<rect width="24" height="24" fill="white"/>
</clipPath>
</defs>
</svg>
