<svg width="24" height="24" viewBox="0 0 24 24" fill="none" xmlns="http://www.w3.org/2000/svg">
<g clip-path="url(#clip0_10_91)">
<path d="M21.9605 5.09114C22.1353 5.26595 22.2344 5.50339 22.2346 5.7506L22.2339 9.639C22.2323 9.87339 22.1428 10.0991 21.9833 10.2708C21.8238 10.4425 21.6057 10.5481 21.3721 10.5671C21.0113 10.5962 20.6741 10.7593 20.4282 11.0249C20.1822 11.2905 20.0456 11.6393 20.0442 12.0013C20.0455 12.3634 20.1822 12.7121 20.4282 12.9777C20.6742 13.2434 21.0113 13.4065 21.3721 13.4356C21.6058 13.4545 21.8244 13.5607 21.9839 13.7325C22.1433 13.9042 22.2323 14.1294 22.2339 14.3636L22.2346 18.2493C22.2341 18.4959 22.1354 18.7321 21.9612 18.9067C21.7867 19.0812 21.5498 19.1801 21.3031 19.1808H16.6406C16.3523 19.1804 16.0672 19.1133 15.8092 18.9847C15.7594 18.96 15.7045 18.9474 15.649 18.9474C15.5934 18.9474 15.5386 18.96 15.4888 18.9847C15.2306 19.1133 14.9458 19.1806 14.6574 19.1808H2.69871C2.45159 19.1805 2.21471 19.0821 2.03994 18.9073C1.86521 18.7326 1.76681 18.4957 1.76649 18.2486V14.3622C1.76822 14.1281 1.85715 13.9027 2.01646 13.7311C2.17599 13.5593 2.3946 13.4531 2.62828 13.4342C2.98994 13.407 3.32827 13.2449 3.575 12.9791C3.82177 12.7131 3.95894 12.3628 3.95893 11.9999C3.95887 11.6372 3.82163 11.2881 3.575 11.0221C3.32824 10.7561 2.9901 10.5929 2.62828 10.5657C2.39473 10.5468 2.17665 10.4411 2.01715 10.2695C1.85764 10.0977 1.76809 9.87203 1.76649 9.63762L1.76442 5.7506C1.76465 5.50354 1.86327 5.2666 2.03787 5.09183C2.21267 4.91703 2.45012 4.81793 2.69733 4.81769H14.656C14.9445 4.8179 15.2293 4.88502 15.4874 5.0138C15.537 5.03831 15.5916 5.05169 15.6469 5.05178C15.7023 5.05178 15.7575 5.03894 15.8071 5.01449C16.0652 4.88573 16.3501 4.8189 16.6385 4.81838L21.3017 4.81769C21.5487 4.81793 21.7857 4.91655 21.9605 5.09114ZM9.64065 15.3601C9.64065 14.8078 9.19235 14.3595 8.64006 14.3595H6.72038C6.1681 14.3595 5.7198 14.8078 5.7198 15.3601C5.71985 15.9121 6.16768 16.3597 6.71969 16.36H8.64075C9.19273 16.3596 9.64059 15.9121 9.64065 15.3601ZM11.5596 12.4799C11.5596 11.9276 11.112 11.48 10.5597 11.48H6.72038C6.16813 11.48 5.72055 11.9276 5.72049 12.4799C5.72049 13.0321 6.1681 13.4797 6.72038 13.4797H10.5597C11.112 13.4797 11.5596 13.0321 11.5596 12.4799ZM16.1814 15.4747C16.1118 15.4037 16.0285 15.3476 15.9369 15.309C15.8454 15.2704 15.747 15.2505 15.6476 15.2503C15.5483 15.25 15.45 15.2695 15.3583 15.3076C15.2665 15.3457 15.1831 15.402 15.1131 15.4726C15.0432 15.5433 14.9881 15.627 14.9509 15.7191C14.9136 15.8113 14.8944 15.9098 14.8956 16.0092L14.8935 16.7695C14.8935 16.8678 14.9133 16.9651 14.9509 17.056C14.9885 17.1469 15.0436 17.2302 15.1131 17.2998C15.1828 17.3694 15.2659 17.4244 15.3569 17.4621C15.4478 17.4997 15.5451 17.5193 15.6435 17.5194L15.6441 17.5228C15.7425 17.5228 15.8398 17.5031 15.9307 17.4655C16.0217 17.4279 16.1048 17.3729 16.1745 17.3032C16.2441 17.2336 16.2997 17.1511 16.3374 17.0602C16.3751 16.9692 16.394 16.8714 16.3941 16.7729L16.3955 16.0133C16.3971 15.914 16.379 15.8149 16.3423 15.7226C16.3055 15.6303 16.251 15.5457 16.1814 15.4747ZM16.1738 12.5682C16.0335 12.43 15.8445 12.3529 15.6476 12.3528C15.4507 12.3528 15.2618 12.4301 15.1214 12.5682C14.9811 12.7065 14.9006 12.8947 14.8977 13.0917V13.8209C14.8977 13.9193 14.9173 14.0165 14.955 14.1074C14.9927 14.1984 15.0476 14.2816 15.1173 14.3512C15.1869 14.4208 15.2701 14.4758 15.361 14.5135C15.4519 14.551 15.5493 14.5708 15.6476 14.5708V14.5736C15.7463 14.5735 15.8444 14.5541 15.9356 14.5162C16.0265 14.4784 16.1091 14.4231 16.1786 14.3533C16.2483 14.2833 16.3041 14.2002 16.3416 14.1088C16.379 14.0175 16.3979 13.9195 16.3975 13.8209V13.0917C16.3947 12.8947 16.3141 12.7066 16.1738 12.5682ZM16.1779 9.64452C16.0373 9.50393 15.8465 9.42493 15.6476 9.42493C15.5492 9.42496 15.4519 9.4446 15.361 9.48225C15.27 9.51994 15.1869 9.57487 15.1173 9.64452C15.0477 9.71415 14.9927 9.79732 14.955 9.88828C14.9174 9.97918 14.8977 10.0765 14.8977 10.1749V10.9041C14.8977 11.1029 14.9767 11.2938 15.1173 11.4344C15.2579 11.5749 15.4488 11.6539 15.6476 11.654V11.6554C15.7461 11.6554 15.8438 11.6364 15.9349 11.5987C16.026 11.561 16.1089 11.5049 16.1786 11.4351C16.2482 11.3653 16.3033 11.2824 16.3409 11.1913C16.3785 11.1002 16.3977 11.0027 16.3975 10.9041V10.1749C16.3975 10.0764 16.3786 9.97859 16.3409 9.88759C16.3032 9.79665 16.2475 9.71413 16.1779 9.64452ZM16.1738 6.70147C16.0335 6.56317 15.8446 6.48471 15.6476 6.48464C15.4506 6.48459 15.2611 6.56252 15.1207 6.70077C14.9806 6.83892 14.9007 7.02674 14.8977 7.22351V7.98724C14.8977 8.08563 14.9173 8.1829 14.955 8.27381C14.9927 8.3648 15.0476 8.44793 15.1173 8.51757C15.1869 8.58712 15.2701 8.64219 15.361 8.67985C15.4519 8.71741 15.5493 8.73717 15.6476 8.73716C15.746 8.73716 15.8433 8.71744 15.9342 8.67985C16.0251 8.64217 16.1083 8.58717 16.1779 8.51757C16.2476 8.44792 16.3025 8.36482 16.3402 8.27381C16.3778 8.18291 16.3975 8.08562 16.3975 7.98724L16.3968 7.2242C16.394 7.02732 16.3139 6.83976 16.1738 6.70147Z" fill="#A07C4B"/>
</g>
<defs>
<clipPath id="clip0_10_91">
<rect width="24" height="24" fill="white"/>
</clipPath>
</defs>
</svg>
